<?xml version="1.0" encoding="UTF-8"?>
<svg width="40px" height="40px" viewBox="0 0 40 40" version="1.1" xmlns="http://www.w3.org/2000/svg" xmlns:xlink="http://www.w3.org/1999/xlink">
    <!-- Generator: Sketch 50.2 (55047) - http://www.bohemiancoding.com/sketch -->
    <title>aoc</title>
    <desc>Created with Sketch.</desc>
    <defs></defs>
    <g id="Symbols" stroke="none" stroke-width="1" fill="none" fill-rule="evenodd">
        <g id="virtues/0bis" transform="translate(-257.000000, -5.000000)">
            <g id="aoc" transform="translate(257.000000, 5.000000)">
                <polygon id="Fill-1" fill="#FFFFFE" opacity="0.01" points="0 39.7435052 39.8815034 39.7435052 39.8815034 0 0 0"></polygon>
                <g id="Appellation_d’Origine_Contrôlée_logo" transform="translate(4.000000, 2.000000)" fill="#9B9B9B" fill-rule="nonzero">
                    <path d="M0.658384615,18.3001648 C0.742846154,18.5045934 0.825772747,18.6811319 0.971355165,18.6715899 C1.07302549,18.6655055 1.13948703,18.5867327 1.13301099,18.4851099 C1.12806593,18.4083152 1.08524176,18.3395275 1.01798901,18.2772198 L0.658384615,18.3001648 Z M1.16930769,17.8462088 C1.2510989,17.9539635 1.27552747,17.999458 1.28052,18.0762053 C1.28779121,18.1832163 1.25297802,18.2436448 1.16624176,18.2707437 C1.25797055,18.3727582 1.30608791,18.482044 1.31375077,18.5951393 C1.3252233,18.7758791 1.18992659,18.9062308 1.03099253,18.9161723 C0.78641011,18.9318462 0.698538462,18.7143626 0.614472527,18.5210624 L0.523879121,18.3093152 L0.457761758,18.3131209 C0.304168352,18.3231099 0.245717802,18.401044 0.255263736,18.5492967 C0.26367033,18.6838536 0.33552,18.8167767 0.482981538,18.9260624 L0.217036484,18.9429231 C0.0982087912,18.8542602 0.0347617582,18.7232163 0.0236848352,18.5447473 C0.00761538462,18.2951723 0.121498022,18.0892088 0.401241758,18.0716558 L1.0351978,18.0311538 C1.08178022,18.0280879 1.09745407,18.0108791 1.09517934,17.9803187 C1.09364835,17.9558426 1.06615385,17.9081209 1.02139912,17.8557547 L1.16930769,17.8462088 Z" id="path5816"></path>
                    <path d="M0.993164835,17.0773042 C1.03134066,17.003967 1.05354198,16.9252418 1.05621231,16.848447 C1.0642233,16.6203297 0.894164835,16.4491319 0.654970549,16.4403297 C0.399311209,16.4311319 0.246065934,16.5602967 0.23652,16.8274286 L0.228509011,17.0498097 L0.993164835,17.0773042 Z M1.87550901,17.1087033 L1.86705495,17.3536338 L0,17.2867767 L0.0152782418,16.8633297 C0.0313002198,16.4124396 0.259813187,16.175524 0.666791209,16.190011 C1.03786813,16.2034141 1.28967033,16.473956 1.27705846,16.8396923 C1.27399253,16.9195569 1.25490462,16.9932857 1.21287165,17.084967 L1.87550901,17.1087033 Z" id="path5818"></path>
                    <path d="M1.11426725,15.374524 C1.16050549,15.3061319 1.1907178,15.2297327 1.20179473,15.1536778 C1.23428571,14.927491 1.08331121,14.7390844 0.846395604,14.7050624 C0.593058462,14.6687657 0.427201319,14.7814615 0.388978022,15.0451833 L0.357673846,15.2656338 L1.11426725,15.374524 Z M1.98820879,15.4999305 L1.95344308,15.7421868 L0.104684835,15.4769855 L0.165065934,15.0573956 C0.229252747,14.6110549 0.481846154,14.4001503 0.884618901,14.4578571 C1.25223429,14.510524 1.47387165,14.8063371 1.42150549,15.1682163 C1.41042857,15.2472857 1.38367385,15.3183956 1.3320989,15.4055275 L1.98820879,15.4999305 Z" id="path5820"></path>
                    <path d="M1.08410242,13.0080185 C0.900692308,12.9701868 0.759659341,13.0451064 0.716882637,13.2124945 C0.670992527,13.3943736 0.749717802,13.5307582 0.931252747,13.6106229 L1.08410242,13.0080185 Z M1.74095604,12.948033 C1.80059341,13.1157692 1.81246154,13.2582857 1.76083516,13.4608352 C1.66608791,13.8341868 1.30687912,13.964491 0.975956044,13.8808207 C0.613681319,13.7887437 0.426461538,13.4967877 0.510131868,13.1658132 C0.590783736,12.8486888 0.858263736,12.7007802 1.30074725,12.8135275 L1.08716835,13.6561174 C1.33362989,13.6786668 1.49108044,13.573978 1.54913538,13.3446778 C1.58582769,13.2006264 1.56708791,13.0511868 1.5117033,12.8891868 L1.74095604,12.948033 Z" id="path5822"></path>
                    <polyline id="path5824" points="2.12805495 12.1680989 2.04898154 12.4000734 0.273607912 11.7905934 0.353076923 11.558967"></polyline>
                    <polyline id="path5826" points="2.46397055 11.299502 2.37070681 11.5257363 0.635835165 10.8117218 0.729098901 10.5853371"></polyline>
                    <path d="M2.43073978,9.92883165 C2.40013187,10.1477473 2.38217934,10.3418901 2.51213538,10.4076119 C2.60307692,10.4536998 2.70014637,10.4196264 2.74633319,10.3289341 C2.78114637,10.2600989 2.77882418,10.1787033 2.75246505,10.0912273 L2.43073978,9.92883165 Z M3.10173626,9.79640308 C3.11701451,9.93036264 3.11548352,9.98233714 3.0807178,10.0509231 C3.03255297,10.1466593 2.97182769,10.1810295 2.88356044,10.1607547 C2.91105495,10.2953077 2.89730769,10.4143371 2.84647253,10.5150185 C2.76433319,10.6774141 2.58245407,10.7205824 2.43949451,10.6485349 C2.22131868,10.5381613 2.25534066,10.305989 2.28090462,10.0966154 L2.30998154,9.86805495 L2.25113538,9.83843604 C2.11391209,9.76871077 2.02376176,9.80639209 1.95690462,9.93916484 C1.89613187,10.0592822 1.89,10.2108462 1.96224527,10.3797218 L1.72414286,10.2591613 C1.66682769,10.1223811 1.67869582,9.97719429 1.75895604,9.81761538 C1.87204747,9.59405143 2.07420132,9.47448 2.32486813,9.60117231 L2.89196703,9.88773626 C2.934,9.90875473 2.95615385,9.90148352 2.96950549,9.87438462 C2.98062989,9.8523811 2.98137363,9.79694505 2.96915736,9.72934813 L3.10173626,9.79640308 Z" id="path5828"></path>
                    <path d="M2.53735516,8.47631868 L2.74292308,8.14465582 L2.92979473,8.26041758 L2.72417934,8.59248 L3.26185714,8.92572527 C3.38568132,9.00286813 3.47582769,8.93566681 3.51405495,8.87469231 C3.55994505,8.80002198 3.5820989,8.70695604 3.58283868,8.59094505 L3.77698154,8.71130769 C3.77198901,8.80842857 3.73262637,8.93912835 3.69059341,9.00731868 C3.55000352,9.2340989 3.33865187,9.26164484 3.14950549,9.14395253 L2.59541011,8.80076571 L2.48231868,8.98289011 L2.45862989,8.96854945 L2.31952747,8.34146901" id="path5830"></path>
                    <path d="M3.00164835,7.37233714 C2.95501451,7.43696703 2.86293758,7.45205143 2.79795956,7.40521978 C2.73337714,7.35858989 2.71849451,7.26651297 2.76507692,7.20193055 C2.81170681,7.13695253 2.90378374,7.12206593 2.96836615,7.16864835 C3.03334418,7.21548 3.04862637,7.30735912 3.00164835,7.37233714 Z M4.25996703,8.12976923 L4.11705495,8.32826374 L3.11473978,7.60623824 L3.25725626,7.40749451 L4.25996703,8.12976923 Z" id="path5832"></path>
                    <path d="M4.29631121,7.04754593 C4.49426374,7.21834813 4.73152747,7.20885363 4.88591209,7.02959341 C5.05483516,6.83376923 5.03569582,6.60313187 4.83393758,6.42867033 C4.6528022,6.27255692 4.40673626,6.29248352 4.24661538,6.4777767 C4.09569231,6.65283165 4.11705495,6.89316132 4.29631121,7.04754593 Z M4.99559341,6.23744703 C5.29095956,6.49271077 5.31311341,6.87140308 5.05443956,7.17137011 C4.80644308,7.45872527 4.42008791,7.48548 4.13272879,7.23708791 C3.86411341,7.00516484 3.84077275,6.61079868 4.08189363,6.33204396 C4.33527824,6.03835912 4.71857143,5.99820527 4.99559341,6.23744703 Z" id="path5834"></path>
                    <path d="M5.32265934,5.292 L5.32651648,5.28784615 C5.31464835,5.13766681 5.36894505,4.99356791 5.46982418,4.90035165 C5.64102198,4.74097451 5.88669231,4.73103297 6.11713187,4.97893055 L6.63492659,5.53757143 L6.4553222,5.70397451 L5.93559692,5.14340308 C5.81216835,5.0101833 5.66278022,4.98728571 5.55423429,5.08836264 C5.47516484,5.16095604 5.44613538,5.25555692 5.44994505,5.42902945 L6.05220132,6.07806593 L5.87254945,6.24466681 L5.03262989,5.33922725 L5.21223429,5.17282418" id="path5836"></path>
                    <path d="M8.16112088,3.19416132 C8.07364088,3.21097451 8.01286813,3.23347253 7.94373626,3.27783165 C7.74425275,3.40565934 7.70221978,3.63550549 7.84206593,3.85313934 C7.96668132,4.04782418 8.13901451,4.14276923 8.37786066,3.98972176 L8.5857033,3.85580967 L8.16112088,3.19416132 Z M8.9036189,3.89724923 L8.46608044,4.17812835 C8.15582769,4.37721626 7.82604396,4.29161538 7.61162637,3.95821978 C7.41906593,3.65726374 7.49591209,3.30384264 7.79928923,3.10895604 C7.86847253,3.06460088 7.94101451,3.03478022 8.04382418,3.01129319 L7.68387165,2.45106593 L7.88943956,2.31868879 L8.9036189,3.89724923 Z" id="path5838"></path>
                    <polyline id="path5840" points="8.67325243 2.14575824 8.51731121 1.86146901 8.73688946 1.74778022 8.89242405 2.03172527 9.01731121 2.39395253 8.9124504 2.4483956"></polyline>
                    <path d="M10.129498,2.54833714 C10.2319121,2.78871429 10.4493442,2.88460088 10.6668277,2.79138462 C10.9052308,2.68971429 10.9892967,2.47420879 10.8846079,2.22888659 C10.7906044,2.00878022 10.5605604,1.91823824 10.3351134,2.01451648 C10.1226264,2.10545802 10.0362857,2.33055692 10.129498,2.54833714 Z M11.1135165,2.12780967 C11.2675055,2.48716484 11.1207363,2.83722725 10.7562343,2.99274725 C10.406967,3.14218681 10.0481024,2.99601099 9.89910989,2.64654593 C9.75960791,2.32021978 9.91211341,1.95601846 10.2510475,1.81122725 C10.6079341,1.65872176 10.9698132,1.79134813 11.1135165,2.12780967 Z" id="path5842"></path>
                    <path d="M11.79252,1.26474725 L11.8766374,1.53549099 L11.881978,1.53380967 C11.9354835,1.28996703 12.0218242,1.16807341 12.1322967,1.1340989 C12.2266484,1.10482418 12.3298497,1.12183516 12.4559011,1.18335165 L12.3947802,1.42412835 C12.3023552,1.37769231 12.1960879,1.35915033 12.1410475,1.37596352 C11.9805824,1.42565934 11.9041319,1.62489758 11.9667837,1.82705143 L12.1578607,2.44478769 L11.924011,2.5171833 L11.5587178,1.33734066" id="path5844"></path>
                    <path d="M13.0642892,0.682417582 C12.9863077,0.699974505 12.9068387,0.650274725 12.8900255,0.572736264 C12.8716813,0.494754725 12.9213771,0.415633846 12.9993112,0.398076923 C13.0769011,0.380128352 13.1559705,0.429824176 13.1739705,0.507362637 C13.1915275,0.585348132 13.1422233,0.664417582 13.0642892,0.682417582 Z M13.5090475,2.08172176 L13.2698571,2.13641407 L12.9947618,0.932688791 L13.2332123,0.877846154 L13.5090475,2.08172176 Z" id="path5846"></path>
                    <path d="M14.5110659,1.95601846 C14.3478791,1.9800989 14.2446738,2.07336264 14.2610914,2.18245055 C14.2790914,2.30489011 14.4086519,2.35231516 14.6291024,2.31962637 C14.8411978,2.28793055 14.9566154,2.20381319 14.940542,2.09245055 C14.9168571,1.93732615 14.6608497,1.93346901 14.5110659,1.95601846 Z M14.4139451,0.874582418 C14.2805749,0.894117363 14.1866189,1.01141407 14.2045714,1.13098549 C14.2244505,1.26440308 14.336011,1.33966681 14.4827288,1.31751297 C14.6188167,1.29723824 14.7028352,1.18755692 14.682956,1.05398901 C14.6653991,0.937285714 14.5419705,0.855494505 14.4139451,0.874582418 Z M14.9879156,0.766879121 L14.7372527,0.804117363 C14.8465385,0.885315165 14.8893626,0.948362637 14.9053846,1.05171429 C14.9199231,1.1523956 14.8801648,1.27795253 14.8316519,1.34367033 C14.6940804,1.54216484 14.3490145,1.50453495 14.3704286,1.64858242 C14.3811099,1.71662637 14.5148716,1.73843604 14.7670695,1.75104396 C15.0360804,1.76385363 15.1484321,1.88307692 15.1713771,2.03820527 C15.2072782,2.28065934 15.0146703,2.45967033 14.6523956,2.51357143 C14.3230035,2.56248 14.0662563,2.44246154 14.0341134,2.22735165 C14.0074101,2.04774725 14.0868791,1.92718681 14.2909596,1.84406242 C14.1992268,1.80469978 14.1537363,1.76192308 14.1457253,1.7072822 C14.1342527,1.62816132 14.200022,1.54889011 14.3130659,1.50418681 L14.3123222,1.49879868 C14.2167837,1.47417231 14.1411244,1.43253495 14.0849486,1.3740844 C14.0322343,1.31785714 13.9990035,1.24486813 13.9856044,1.15506593 C13.9466374,0.893868132 14.1269815,0.70304044 14.4563736,0.654131868 L14.9596813,0.578820659 L14.9879156,0.766879121 Z" id="path5848"></path>
                    <path d="M15.7160274,0.293392088 C15.6155924,0.298534945 15.5267174,0.23756044 15.5199674,0.158095385 C15.5122774,0.0784285714 15.5895274,0.00756791209 15.6900274,0.00242505495 C15.7909674,-0.00331120879 15.8797774,0.0576118681 15.8875274,0.137472527 C15.8942174,0.216989011 15.8164674,0.287655824 15.7160274,0.293392088 Z M15.9990874,1.74471429 L15.6904674,1.76212088 L15.5808424,0.529912088 L15.8889674,0.512556923 L15.9990874,1.74471429 Z" id="path5850"></path>
                    <path d="M16.8267363,0.638655824 L16.8320769,0.638802198 C16.9268716,0.521505495 17.0651868,0.454450549 17.2027582,0.456183297 C17.4366079,0.458853626 17.6223442,0.620703297 17.6181429,0.958897582 L17.6093881,1.72102945 L17.3640145,1.71796352 L17.3735604,0.953307692 C17.375487,0.771824176 17.2837582,0.652205275 17.1347618,0.65067033 C17.0277508,0.649139341 16.9417582,0.698095385 16.8244615,0.825875604 L16.81452,1.71148352 L16.5691978,1.70881319 L16.5837363,0.473340659 L16.8290585,0.476406593" id="path5852"></path>
                    <path d="M19.1481903,1.11990857 C19.1619376,0.933230769 19.0686738,0.803128352 18.8967363,0.783098901 C18.7106519,0.761490989 18.5860879,0.857820659 18.5306519,1.04810637 L19.1481903,1.11990857 Z M19.294564,1.76306242 C19.135978,1.84406242 18.996476,1.87501846 18.7885859,1.85093407 C18.4056923,1.80642857 18.2299451,1.4672967 18.2689121,1.12811736 C18.312476,0.756545934 18.5768901,0.532633846 18.915476,0.571945055 C19.2410585,0.609776703 19.4229376,0.855494505 19.3702233,1.30930418 L18.5062233,1.20862286 C18.516509,1.45621978 18.6407288,1.59814286 18.8761134,1.62549099 C19.024022,1.64284615 19.1692088,1.60467033 19.3220585,1.52807341 L19.294564,1.76306242 Z" id="path5854"></path>
                    <path d="M22.0565749,1.6106044 C21.9484286,1.48104396 21.8666374,1.4282822 21.763531,1.39776923 C21.5499046,1.33506593 21.3542308,1.45196703 21.2839121,1.69234813 C21.2113187,1.93806593 21.3259451,2.13240659 21.5689925,2.20381319 C21.6691319,2.23348352 21.7718901,2.23521626 21.9063956,2.21741407 L21.8380035,2.44973275 C21.7478057,2.46313187 21.5876848,2.45052396 21.4639121,2.41402945 C21.1104396,2.30968879 20.9346409,1.99097802 21.0370549,1.64269978 C21.1524725,1.25213934 21.4528352,1.07105143 21.8112527,1.1768756 C21.9488242,1.21717582 22.0317508,1.27621978 22.1303552,1.35954593" id="path5856"></path>
                    <path d="M22.7727178,2.16850549 C22.6725824,2.40962637 22.7559046,2.63220527 22.974476,2.72294505 C23.2132747,2.82214286 23.426553,2.73194505 23.5293626,2.48568132 C23.6206484,2.26439209 23.5247143,2.03706593 23.2985275,1.94286462 C23.0852967,1.854 22.8636593,1.94988659 22.7727178,2.16850549 Z M23.7608901,2.57909538 C23.6111024,2.94003297 23.2584211,3.07948352 22.8922892,2.92722725 C22.5418826,2.78144703 22.395956,2.42297802 22.5418826,2.07237363 C22.6779231,1.74471429 23.0451903,1.59913187 23.3856593,1.74071077 C23.7440769,1.88955692 23.9015275,2.2410989 23.7608901,2.57909538 Z" id="path5858"></path>
                    <path d="M24.7621134,2.59610637 L24.7666629,2.5987767 C24.9057692,2.54086813 25.0593626,2.54759341 25.1801209,2.61425275 C25.3842013,2.7273956 25.470542,2.95758989 25.3062198,3.25354945 L24.9371209,3.91979868 L24.7230989,3.80096703 L25.0937802,3.1323956 C25.1816519,2.97365934 25.1572233,2.82461538 25.0272673,2.75276571 C24.9336593,2.70079121 24.8351024,2.70272176 24.6711244,2.75968879 L24.2416484,3.53462637 L24.0276264,3.41574725 L24.6264211,2.33569978 L24.8407912,2.45432967" id="path5860"></path>
                    <path d="M26.4197473,3.41347253 L26.7422637,3.6335789 L26.618487,3.81510989 L26.2959705,3.59500747 L25.9390365,4.11779868 C25.8565055,4.23776571 25.9199011,4.33097802 25.9787947,4.37148 C26.0513881,4.42097802 26.1434651,4.44713934 26.2596738,4.45307341 L26.1308571,4.64162637 C26.0338352,4.6320844 25.9050145,4.5871833 25.8389486,4.5422822 C25.6188462,4.39175473 25.6004505,4.17946154 25.7258057,3.9957033 L26.0934211,3.45704044 L25.9161429,3.33588659 L25.9321648,3.31333714 L26.5641903,3.20217231" id="path5862"></path>
                    <path d="M27.4732892,4.1938022 L27.2940804,4.41371077 L27.2986813,4.41692308 C27.5317912,4.3267767 27.6807837,4.33097802 27.7702418,4.40357143 C27.8473846,4.46642505 27.8902088,4.56141758 27.908553,4.70067033 L27.6743077,4.78305495 C27.6620914,4.68098901 27.6188716,4.58144703 27.5738242,4.54495253 C27.44352,4.43947253 27.2352343,4.48615385 27.1018681,4.65062637 L26.6937508,5.15220527 L26.5038132,4.99762286 L27.2833516,4.03941758" id="path5864"></path>
                    <path d="M29.2314541,5.58989011 L29.1244945,5.48273275 L29.1248901,5.14453846 L28.7943112,5.15220527 L28.6911574,5.0486044 L29.1619266,4.93205143 L29.3426703,5.11338462 L29.2314541,5.58989011 Z M28.1309341,5.56600747 C27.945989,5.7506044 27.937978,5.98826374 28.1049705,6.15545802 C28.2875934,6.33832615 28.5191684,6.33659341 28.7079705,6.14784264 C28.8776374,5.97852396 28.8753626,5.73166681 28.7026299,5.55839209 C28.5390475,5.39500747 28.2979266,5.39906242 28.1309341,5.56600747 Z M28.8868352,6.32304396 C28.6109011,6.59932615 28.2310695,6.59319429 27.9513297,6.31290857 C27.6831099,6.04424176 27.684989,5.65734066 27.9536519,5.38912088 C28.2051099,5.13806242 28.5994286,5.14414286 28.860033,5.40494505 C29.1344321,5.67934813 29.1459046,6.06437011 28.8868352,6.32304396 Z" id="path5866"></path>
                    <polyline id="path5868" points="28.9815824 7.40749451 28.8241319 7.22007692 30.2613626 6.01422725 30.4187618 6.20169231"></polyline>
                    <path d="M31.3286044,7.53591956 L30.8207473,7.51811736 L30.7332673,7.39493407 L31.1696703,7.31121626 L31.3286044,7.53591956 Z M30.4780035,8.16240659 C30.6259121,8.04723824 30.6602782,7.89146901 30.5601429,7.74989011 C30.452044,7.59743604 30.2968681,7.56915033 30.1187947,7.65514286 L30.4780035,8.16240659 Z M30.0981758,8.70141758 C29.9315749,8.6375789 29.8153662,8.55445055 29.6946079,8.38384615 C29.4722308,8.06973626 29.6059925,7.71206242 29.8841538,7.51450549 C30.1898571,7.29820879 30.5322527,7.34484264 30.7298057,7.62324923 C30.9193516,7.8901833 30.8582308,8.1897033 30.4856703,8.45376923 L29.983498,7.74454945 C29.8062198,7.91748 29.7832747,8.10489758 29.9201024,8.2982967 C30.0064431,8.41935165 30.1321464,8.50173626 30.2915235,8.56439209 L30.0981758,8.70141758 Z" id="path5870"></path>
                    <path d="M31.359956,9.61580967 C31.5192857,9.51685714 31.5693297,9.36479868 31.48452,9.21402198 C31.3924431,9.0510844 31.2414725,9.00672527 31.0549925,9.07397802 L31.359956,9.61580967 Z M30.9266189,10.1126374 C30.7676334,10.0319855 30.6602782,9.93758242 30.5574725,9.75530769 C30.3687178,9.41963736 30.5391244,9.07743956 30.8356299,8.9097033 C31.1620035,8.72624176 31.4982673,8.80803297 31.6660549,9.10532967 C31.8269156,9.39021626 31.7352343,9.68197451 31.3378022,9.9062822 L30.9105455,9.14909538 C30.7164541,9.30249099 30.6752123,9.48704044 30.7913736,9.69344703 C30.8643626,9.82280967 30.9808681,9.9177033 31.132978,9.99648 L30.9266189,10.1126374 Z" id="path5872"></path>
                    <path d="M17.7102673,14.1261429 C17.5141978,13.8846264 17.1675969,13.6579965 16.7449925,13.6579965 C16.2623552,13.6579965 15.8698681,13.9297253 15.6436813,14.3367033 C15.3421793,14.8647877 15.3421793,15.8300624 15.3421793,16.2672527 C15.3421793,17.73 15.6291429,18.2428536 15.8851978,18.4996484 C16.0663332,18.6655055 16.3376189,18.8461978 16.7297143,18.8461978 C17.9815055,18.8461978 18.1477582,17.4739965 18.1477582,16.237436 C18.1477582,15.4226888 18.0720989,14.5628901 17.7102673,14.1261429 Z M16.7056299,19.9020659 C14.8281903,19.9020659 14.1846923,19.1931943 13.8434321,18.6811319 C13.3573846,17.9723077 13.2262892,17.118989 13.2262892,16.2787253 C13.2262892,13.8628681 14.5132892,12.6419341 16.7977068,12.6419341 C17.1385675,12.6419341 17.8210879,12.6682932 18.3992123,12.8914615 C20.2368936,13.6133407 20.2368936,15.7402602 20.2368936,16.2523187 C20.2368936,18.2217877 19.4890549,19.9020659 16.7056299,19.9020659 Z" id="path5874"></path>
                    <path d="M26.9410035,13.7012163 C27.5879156,13.7012163 28.28952,13.7887437 29.0457692,13.962956 C29.8020145,14.1376154 30.2594321,14.2247473 30.4199011,14.2247473 C30.688564,14.2247473 30.8777143,14.1815789 30.987,14.0940514 C31.095542,14.0069196 31.1864835,13.883491 31.2590769,13.7233701 L31.7176299,13.7233701 L30.8998681,18.1721393 L30.507033,18.1174945 C30.4267727,17.2378681 30.2304066,16.5293921 29.9185714,15.9913187 C29.3438057,14.9954835 28.395,14.4972198 27.0720989,14.4972198 C25.0364651,14.4972198 23.3608352,15.5152088 22.0451024,17.550447 C20.8964176,19.3170185 20.3224431,21.232978 20.3224431,23.2972932 C20.3224431,24.8315459 20.6709705,25.9905165 21.3691648,26.7758426 C22.066564,27.5607218 22.9645385,27.9535569 24.0624396,27.9535569 C25.1965385,27.9535569 26.2355934,27.6776703 27.180989,27.1247143 C27.7404211,26.7903811 28.4710549,26.1907437 29.3728826,25.3260514 L29.7328352,25.6420404 C28.9181354,26.6741723 27.9972198,27.4869415 26.968498,28.0792602 C25.9397802,28.6711833 24.8075604,28.9677363 23.5717398,28.9677363 C21.7103736,28.9677363 20.2819451,28.3792273 19.286553,27.201513 C18.2903222,26.0234031 17.792011,24.6492712 17.792011,23.0791174 C17.792011,20.8256558 18.6250549,18.7468536 20.2896593,16.8419196 C22.1139376,14.7482822 24.3314505,13.7012163 26.9410035,13.7012163" id="path5876"></path>
                    <path d="M11.6431319,16.3398462 L10.197542,9.38561538 L8.58263736,16.3826229 C8.47681319,16.7861393 8.71031868,17.3597657 9.1351978,17.3597657 L11.0053662,17.3597657 C11.5373077,17.3597657 11.7704176,16.9137692 11.6431319,16.3398462 Z M11.0477947,18.2886923 L8.88072527,18.2886923 C8.41257495,18.2886923 7.75419033,18.6926044 7.60514637,19.0537437 L5.98949802,22.9216668 C5.90464088,23.1341064 5.77740659,23.346989 5.52253846,23.346989 C5.22484615,23.346989 5.20348352,22.9216668 5.26727473,22.6881613 L9.60294857,6.81216132 C9.73018681,6.3446044 10.7294835,5.96195604 10.9633332,6.85439209 L14.9160659,22.2842492 C15.0223332,22.7305899 14.8312563,23.4107802 14.2152527,23.4107802 C13.8109451,23.4107802 13.4708716,23.2835459 13.3436374,22.8368571 L12.322978,19.2027363 C12.1533112,18.6288132 11.7490035,18.2886923 11.0477947,18.2886923 Z" id="path5878"></path>
                    <path d="M15.9310365,26.4869525 C15.128553,26.8927437 14.271033,27.2038352 13.2943332,27.1297108 C11.6603407,27.0089525 10.6094651,25.9443297 9.30565187,25.218989 C8.36945407,24.6993152 7.37742857,24.4941429 6.32502198,24.5778132 C5.70520879,24.6293921 5.11941758,24.7891174 4.61536615,25.0509086 L4.10295956,26.9118791 C4.69864088,26.4288462 5.48238462,26.1888646 6.32502198,26.1174066 C7.47637714,26.0199415 8.27693407,26.477011 9.22005495,27.0639415 C10.4810914,27.8496119 11.2697802,28.5420185 13.2943332,28.7185569 C14.4246738,28.8172088 15.3971684,28.4534031 16.3078022,27.9864396" id="path5880"></path>
                    <polyline id="path5882" points="12.4834431 33.6472932 13.5538022 33.9163042 13.478487 34.2167143 12.8422563 34.056989 12.7811354 34.3022637 13.3233587 34.4383042 13.2526958 34.721458 12.7096813 34.5850734 12.5651868 35.1597877 12.1311574 35.050502"></polyline>
                    <path d="M14.1048277,34.6102932 L14.2931868,34.6408536 C14.3130659,34.6439196 14.3539596,34.6439196 14.4147363,34.6401099 C14.444553,34.6393187 14.4712563,34.6282418 14.4942013,34.6072273 C14.5167508,34.5861613 14.5308936,34.5598536 14.5354945,34.5288462 C14.5431099,34.4826593 14.5339596,34.444436 14.5083442,34.4154066 C14.4827288,34.3855385 14.4292747,34.3641758 14.3478791,34.3511723 L14.1518057,34.3190769 L14.1048277,34.6102932 Z M13.5251684,35.3882967 L13.755956,33.9598681 L14.4934615,34.0790954 C14.6298936,34.1012967 14.7322563,34.1295349 14.8010914,34.1647437 C14.8694835,34.1998536 14.9207143,34.2526154 14.9542892,34.3232822 C14.9887068,34.3936009 14.9982527,34.4742527 14.9833662,34.5655899 C14.9711538,34.6446593 14.942073,34.7103811 14.8993002,34.7623516 C14.8556848,34.8143262 14.801487,34.8532932 14.7361134,34.8796998 C14.6940804,34.8961174 14.639044,34.9068462 14.5706519,34.911 C14.6203516,34.9374066 14.6554615,34.9610954 14.676476,34.982458 C14.6910145,34.9969965 14.7105495,35.026022 14.7345824,35.0695899 C14.7586629,35.1131538 14.7746848,35.146436 14.7815604,35.1689855 L14.9324835,35.6156703 L14.4338242,35.5350185 L14.2668791,35.0603921 C14.2458607,34.9992712 14.2251903,34.957978 14.2037802,34.9374066 C14.175542,34.9106044 14.1411244,34.893447 14.1002308,34.886967 L14.0612637,34.8808352 L13.9676519,35.4597547 L13.5251684,35.3882967 Z" id="path5884"></path>
                    <path d="M15.9906264,35.139956 L15.86952,34.609502 L15.6749815,35.1184945 L15.9906264,35.139956 Z M16.0636629,35.4586154 L15.5580804,35.4241978 L15.4702088,35.6557767 L15.0146703,35.6244251 L15.6574286,34.2189415 L16.145011,34.2522198 L16.5868022,35.732967 L16.1197912,35.7005275 L16.0636629,35.4586154 Z" id="path5886"></path>
                    <polyline id="path5888" points="16.7847033 34.287033 17.2027582 34.2740295 17.7706484 35.0577692 17.7465165 34.2580075 18.1676374 34.2457437 18.2108571 35.6916778 17.7901319 35.7039415 17.2257033 34.9247987 17.2493881 35.7204066 16.8283187 35.732967"></polyline>
                    <path d="M19.4837143,34.9396338 L19.8868826,35.0038681 C19.8761538,35.1162198 19.8471244,35.2132932 19.8008387,35.293502 C19.7550475,35.3745495 19.6923442,35.4390844 19.6144101,35.4872967 C19.5360804,35.5362053 19.4328791,35.5690404 19.3045055,35.5862492 C19.1485385,35.6076593 19.0186299,35.6023187 18.9135969,35.570524 C18.8084651,35.53848 18.7121868,35.4708791 18.6253991,35.3661429 C18.5379231,35.2621978 18.4825385,35.1216119 18.4584541,34.943491 C18.425967,34.7065714 18.4645859,34.5162857 18.573476,34.3718426 C18.6823662,34.2273956 18.8516848,34.1394725 19.0824725,34.1081209 C19.2624725,34.0836923 19.4091903,34.1009011 19.5230769,34.1597473 C19.6358202,34.2189415 19.7278497,34.3206119 19.798564,34.4651064 L19.4202673,34.6056923 C19.4007837,34.5636593 19.3816958,34.5330989 19.3640914,34.5155459 C19.3350659,34.4841943 19.3006484,34.461989 19.2624725,34.4486374 C19.2238497,34.4352857 19.182956,34.4314286 19.1386484,34.4375604 C19.038509,34.4513077 18.9666593,34.5017473 18.9242782,34.5896703 C18.8917912,34.6549451 18.8841758,34.7516703 18.9017288,34.8796998 C18.9235385,35.0378426 18.9625055,35.1437143 19.0186299,35.1956888 C19.0748571,35.2477108 19.147051,35.2678866 19.2341868,35.2560659 C19.3193881,35.2445934 19.3801134,35.2121538 19.4172013,35.1589965 C19.4542892,35.1055385 19.4764431,35.0328976 19.4837143,34.9396338" id="path5890"></path>
                    <polyline id="path5892" points="19.9151209 34.0042273 21.0779486 33.7191429 21.1517288 34.0202492 20.424509 34.1983187 20.4788057 34.4203516 21.1532637 34.2548901 21.2242747 34.5411099 20.5494725 34.7065714 20.6175165 34.9843846 21.3649121 34.8005789 21.4428936 35.1192857 20.2598387 35.4093152"></polyline>
                </g>
            </g>
        </g>
    </g>
</svg>