<?xml version="1.0" encoding="UTF-8"?>
<svg width="40px" height="40px" viewBox="0 0 40 40" version="1.1" xmlns="http://www.w3.org/2000/svg" xmlns:xlink="http://www.w3.org/1999/xlink">
    <!-- Generator: Sketch 50.2 (55047) - http://www.bohemiancoding.com/sketch -->
    <title>AB</title>
    <desc>Created with Sketch.</desc>
    <defs></defs>
    <g id="Symbols" stroke="none" stroke-width="1" fill="none" fill-rule="evenodd">
        <g id="virtues/0bis" transform="translate(-202.000000, -5.000000)">
            <g id="AB" transform="translate(202.000000, 5.000000)">
                <polygon id="Fill-1" fill="#FFFFFE" opacity="0.01" points="0 39.7435052 39.8815034 39.7435052 39.8815034 0 0 0"></polygon>
                <g id="ab" transform="translate(7.000000, 3.000000)" fill="#9B9B9B">
                    <path d="M2.57954098,3.93285246 C2.57545967,4.14874529 2.49259863,4.35569964 2.34655738,4.5147541 C2.20456674,4.63977657 2.02391714,4.71219384 1.83488525,4.71986885 C1.45029508,4.73436066 1.18052459,4.4344918 1.088,3.98747541 C1.0655608,3.86501574 1.05436665,3.7407607 1.05455738,3.6162623 C1.0529279,3.47957065 1.06638639,3.34311654 1.09468852,3.20937705 C1.19278689,2.8147541 1.40013115,2.50485246 1.84937705,2.50485246 C2.02082269,2.49985637 2.18763582,2.56091476 2.31534426,2.67540984 C2.48736048,2.82099665 2.58444565,3.03646838 2.57954098,3.26177049 L2.23954098,3.26177049 C2.23875446,3.15032287 2.19047946,3.04449935 2.10682903,2.97085292 C2.0231786,2.89720648 1.91209193,2.86272685 1.80144262,2.87606557 C1.63018494,2.9088346 1.49479902,3.04027724 1.45698361,3.2104918 C1.42472575,3.32985506 1.40639607,3.45255174 1.40236066,3.57613115 C1.39310751,3.72685593 1.41162245,3.87799826 1.45698361,4.02203279 C1.49320115,4.14448061 1.57235974,4.24976154 1.67993443,4.31855738 C1.72280078,4.34144666 1.77068445,4.35332181 1.81927869,4.35311475 C1.87050985,4.35557446 1.92170725,4.34761042 1.96977049,4.32970492 C2.13377733,4.27014411 2.24175534,4.11288152 2.23842623,3.93842623 L2.57954098,3.93285246 Z" id="Shape" fill-rule="nonzero"></path>
                    <polygon id="Shape" fill-rule="nonzero" points="5.78334426 2.53940984 5.78334426 2.89836066 4.88485246 2.89836066 4.88485246 3.38327869 5.71422951 3.38327869 5.71422951 3.74445902 4.88485246 3.74445902 4.88485246 4.29180328 5.82347541 4.29180328 5.82347541 4.65409836 4.5292459 4.65409836 4.5292459 2.53606557"></polygon>
                    <path d="M8.14885246,2.89836066 L8.63265574,2.89836066 C8.79206557,2.89836066 8.84891803,2.98531148 8.84891803,3.13580328 C8.86464951,3.20644337 8.85096738,3.28044372 8.81101769,3.34078877 C8.77106801,3.40113382 8.70828855,3.44263071 8.63711475,3.4557377 L8.14885246,3.4557377 L8.14885246,2.89836066 Z M7.7932459,4.65409836 L8.14885246,4.65409836 L8.14885246,3.81803279 L8.568,3.81803279 C8.6260748,3.81294774 8.68344757,3.83365837 8.72488392,3.87466532 C8.76632026,3.91567227 8.78762739,3.9728262 8.78314754,4.03095082 C8.78314754,4.18478689 8.78314754,4.35311475 8.78314754,4.45790164 C8.78669234,4.52560369 8.80255865,4.59209107 8.82996721,4.65409836 L9.21232787,4.65409836 L9.21232787,4.57718033 C9.17331148,4.54819672 9.14544262,4.52255738 9.14544262,4.40327869 C9.14544262,4.284 9.14098361,4.01311475 9.12872131,3.92839344 C9.11745348,3.80489244 9.04561166,3.69504128 8.93698361,3.63521311 C9.05981772,3.56273396 9.14551325,3.44089198 9.17219672,3.30078689 C9.20212713,3.15966008 9.19637985,3.01329615 9.15547541,2.87495082 C9.11890593,2.68275401 8.95202385,2.5429087 8.75639344,2.54052459 L7.7932459,2.54052459 L7.7932459,4.65409836 Z" id="Shape" fill-rule="nonzero"></path>
                    <polygon id="Shape" fill-rule="nonzero" points="12.4127869 2.53940984 12.4127869 2.89836066 11.9066885 2.89836066 11.9066885 4.65409836 11.551082 4.65409836 11.551082 2.89836066 11.0260328 2.89836066 11.0260328 2.53940984"></polygon>
                    <polygon id="Shape" fill-rule="nonzero" points="14.7688525 4.65409836 14.2688525 4.65409836 14.2688525 2.53606557 14.7657372 2.53606557"></polygon>
                    <polygon id="Shape" fill-rule="nonzero" points="17.8505574 2.53940984 17.8505574 2.89836066 16.9899672 2.89836066 16.9899672 3.38327869 17.7491148 3.38327869 17.7491148 3.74445902 16.9899672 3.74445902 16.9899672 4.6507541 16.6354754 4.6507541 16.6354754 2.53272131"></polygon>
                    <polygon id="Shape" fill-rule="nonzero" points="20.2311475 4.65409836 19.7311475 4.65409836 19.7311475 2.53606557 20.2249364 2.53606557"></polygon>
                    <path d="M22.8234754,1.94078689 L23.12,1.94078689 L22.8179016,2.37554098 L22.6540328,2.37554098 L22.8234754,1.94078689 Z M23.3630164,2.53940984 L23.3630164,2.89836066 L22.4645246,2.89836066 L22.4645246,3.38327869 L23.2983607,3.38327869 L23.2983607,3.74445902 L22.4689836,3.74445902 L22.4689836,4.29180328 L23.4098361,4.29180328 L23.4098361,4.65409836 L22.1100328,4.65409836 L22.1100328,2.53606557 L23.3630164,2.53940984 Z" id="Shape" fill-rule="nonzero"></path>
                    <rect id="Rectangle-path" fill-rule="nonzero" x="0.683344262" y="0.65547541" width="22.9505574" height="1"></rect>
                    <rect id="Rectangle-path" fill-rule="nonzero" x="0.662163934" y="32.7570492" width="23.0542295" height="1"></rect>
                    <path d="M1.58852459,27.2345574 L1.87055738,28.0416393 L1.32767213,28.0416393 L1.58852459,27.2345574 Z M1.83822951,26.7384918 L1.33770492,26.7384918 L0.601967213,28.8119344 L1.04786885,28.8119344 L1.19613115,28.3972459 L1.97645902,28.3972459 L2.12137705,28.8119344 L2.56727869,28.8119344 L1.83822951,26.7384918 Z" id="Shape" fill-rule="nonzero"></path>
                    <path d="M4.08,27.7005246 L4.92721311,27.7005246 L4.92721311,28.8152787 L4.6652459,28.8152787 L4.61396721,28.5544262 C4.45704752,28.7788506 4.19073199,28.9004851 3.91836066,28.8721311 C3.68486188,28.8751635 3.46110486,28.7786885 3.30301639,28.6068197 C2.81252459,28.138623 2.87940984,27.0796066 3.59062295,26.7752787 C3.71847974,26.7240359 3.85533225,26.6990157 3.99304918,26.7017049 C4.24457609,26.6812997 4.49392932,26.7614776 4.68642623,26.9246557 C4.82531173,27.041421 4.91196117,27.2087025 4.92721311,27.3895082 L4.5292459,27.3895082 C4.45455738,27.1431475 4.23940984,27.055082 4.01311475,27.055082 C3.88105147,27.0520736 3.75144863,27.0911106 3.64301639,27.1665574 C3.37547541,27.3895082 3.36098361,27.9134426 3.47691803,28.1486557 C3.56291942,28.3485634 3.74650066,28.48952 3.96183607,28.5209836 C4.14325928,28.5379435 4.32184767,28.4670883 4.44229508,28.3303607 C4.51703609,28.2548616 4.55976312,28.1534348 4.56157377,28.0472131 L4.08,28.0472131 L4.08,27.7005246 Z" id="Shape" fill-rule="nonzero"></path>
                    <path d="M6.03527869,27.0940984 L6.6227541,27.0940984 C6.81672131,27.0940984 6.88583607,27.1799344 6.88583607,27.327082 C6.89554111,27.402984 6.87335292,27.4795137 6.82455328,27.5384535 C6.77575363,27.5973933 6.70470782,27.633471 6.62832787,27.6380984 L6.03527869,27.6380984 L6.03527869,27.0940984 Z M5.60052459,28.8119344 L6.03527869,28.8119344 L6.03527869,27.9925902 L6.54472131,27.9925902 C6.69521311,27.9925902 6.8,28.0617049 6.80557377,28.2010492 C6.81114754,28.3403934 6.80557377,28.5165246 6.80557377,28.6179672 C6.81044782,28.6860898 6.83023721,28.7523081 6.86354098,28.8119344 L7.3295082,28.8119344 L7.3295082,28.7350164 C7.28268852,28.7071475 7.24813115,28.6815082 7.24813115,28.564459 C7.24813115,28.4474098 7.23921311,28.1865574 7.22806557,28.1007213 C7.2053116,27.9709443 7.11660752,27.8623874 6.99396721,27.8142295 C7.13396837,27.7537315 7.23922204,27.6333245 7.28045902,27.4864918 C7.31758063,27.3484703 7.310564,27.2022905 7.26039344,27.068459 C7.19908197,26.8455082 6.98504918,26.7474098 6.7732459,26.7340328 L5.60052459,26.7340328 L5.60052459,28.8119344 Z" id="Shape" fill-rule="nonzero"></path>
                    <polygon id="Shape" fill-rule="nonzero" points="8.388 28.8119344 7.888 28.8119344 7.888 26.7396066 8.388 26.7396066"></polygon>
                    <path d="M10.7451148,28.1029508 C10.7346776,28.3243551 10.6314923,28.5311304 10.4608525,28.6725902 C10.276943,28.7982506 10.0603989,28.8675912 9.83770492,28.8721311 C9.36727869,28.886623 9.03954098,28.5912131 8.92583607,28.1542295 C8.89831602,28.0350549 8.88447797,27.9131304 8.88459016,27.7908197 C8.88218622,27.6564472 8.89907975,27.5224252 8.9347541,27.3928525 C9.05403279,27.0060328 9.30596721,26.7028197 9.85442623,26.7028197 C10.0564634,26.6948739 10.2557252,26.7519174 10.4229508,26.8655738 C10.6235999,26.9871878 10.7458542,27.2050459 10.7451148,27.4396721 L10.3304262,27.4396721 C10.3192787,27.3281967 10.2189508,27.0305574 9.79645902,27.0617705 C9.6045347,27.0808185 9.44083729,27.2089106 9.37619672,27.390623 C9.33736532,27.506593 9.31485452,27.6274009 9.30931148,27.7495738 C9.29887185,27.8976678 9.32172605,28.0462201 9.37619672,28.1843279 C9.42784477,28.3113882 9.52531415,28.4144273 9.64931148,28.4730492 C9.7031302,28.4963419 9.76122802,28.5081133 9.81986885,28.5076066 C9.88158057,28.5093545 9.94320557,28.5018393 10.0026885,28.4853115 C10.1882116,28.4499306 10.3243787,28.2906059 10.3304262,28.1018361 L10.7451148,28.1029508 Z" id="Shape" fill-rule="nonzero"></path>
                    <path d="M12.9935738,26.7396066 L12.9935738,28.1676066 C13.0065292,28.4381138 12.8474937,28.6873886 12.5967213,28.7896393 C12.4600644,28.846557 12.3133443,28.8753702 12.1653115,28.8743607 C12.0264211,28.8752228 11.8884146,28.8522217 11.7573115,28.8063607 C11.4061639,28.6157377 11.3192131,28.3716066 11.3192131,28.1676066 L11.3192131,26.7396066 L11.7539672,26.7396066 L11.7539672,28.1731803 C11.7539672,28.3036066 11.7996721,28.5076066 12.1530492,28.5076066 C12.5064262,28.5076066 12.5588197,28.3058361 12.5588197,28.1731803 L12.5588197,26.7396066 L12.9935738,26.7396066 Z" id="Shape" fill-rule="nonzero"></path>
                    <polygon id="Shape" fill-rule="nonzero" points="14.1072131 26.7396066 14.1072131 28.4563279 15.1194098 28.4563279 15.1194098 28.8119344 13.6702295 28.8119344 13.6702295 26.7396066"></polygon>
                    <polygon id="Shape" fill-rule="nonzero" points="16.9777049 26.7384918 16.9777049 27.0940984 16.3601311 27.0940984 16.3601311 28.8119344 15.925377 28.8119344 15.925377 27.0940984 15.2843934 27.0940984 15.2843934 26.7384918"></polygon>
                    <path d="M19.1559344,26.7396066 L19.1559344,28.1676066 C19.1680379,28.4382114 19.0087306,28.6872128 18.7579672,28.7896393 C18.621337,28.8466452 18.4745988,28.875462 18.3265574,28.8743607 C18.187688,28.8749605 18.0497257,28.8519668 17.9185574,28.8063607 C17.5674098,28.6157377 17.480459,28.3716066 17.480459,28.1676066 L17.480459,26.7396066 L17.9152131,26.7396066 L17.9152131,28.1731803 C17.9152131,28.3036066 17.9620328,28.5076066 18.3154098,28.5076066 C18.6687869,28.5076066 18.7200656,28.3058361 18.7200656,28.1731803 L18.7200656,26.7396066 L19.1559344,26.7396066 Z" id="Shape" fill-rule="nonzero"></path>
                    <path d="M20.2695738,27.0940984 L20.8559344,27.0940984 C21.0499016,27.0940984 21.1201311,27.1799344 21.1201311,27.327082 C21.1294981,27.4029209 21.1071858,27.479267 21.058453,27.5381262 C21.0097201,27.5969853 20.9388778,27.6331506 20.862623,27.6380984 L20.2695738,27.6380984 L20.2695738,27.0940984 Z M19.8337049,28.8119344 L20.2695738,28.8119344 L20.2695738,27.9925902 L20.7790164,27.9925902 C20.9295082,27.9925902 21.0331803,28.0617049 21.0387541,28.2010492 C21.0443279,28.3403934 21.0387541,28.5165246 21.0387541,28.6179672 C21.0441482,28.6859936 21.0639051,28.7521031 21.0967213,28.8119344 L21.5626885,28.8119344 L21.5626885,28.7350164 C21.5169836,28.7071475 21.4813115,28.6815082 21.4813115,28.564459 C21.4813115,28.4474098 21.4723934,28.1865574 21.4612459,28.1007213 C21.4384919,27.9709443 21.3497878,27.8623874 21.2271475,27.8142295 C21.3673429,27.7539981 21.4726926,27.6334814 21.5136393,27.4864918 C21.550761,27.3484703 21.5437443,27.2022905 21.4935738,27.068459 C21.4322623,26.8455082 21.2182295,26.7474098 21.0064262,26.7340328 L19.8337049,26.7340328 L19.8337049,28.8119344 Z" id="Shape" fill-rule="nonzero"></path>
                    <polygon id="Shape" fill-rule="nonzero" points="23.7019016 26.7384918 23.7019016 27.0940984 22.6060984 27.0940984 22.6060984 27.5678689 23.6171803 27.5678689 23.6171803 27.9234754 22.6060984 27.9234754 22.6060984 28.4563279 23.7509508 28.4563279 23.7509508 28.8119344 22.1702295 28.8119344 22.1702295 26.7384918"></polygon>
                    <path d="M1.31318033,30.5308852 L1.83042623,30.5308852 C1.98091803,30.5308852 2.10019672,30.5877377 2.10019672,30.7672131 C2.10019672,30.9466885 1.98872131,31.0046557 1.80701639,31.0046557 L1.31318033,31.0046557 L1.31318033,30.5308852 Z M0.87842623,32.2476066 L1.83265574,32.2476066 C2.01490422,32.2570943 2.19528953,32.207009 2.34655738,32.104918 C2.48442664,32.001551 2.5667344,31.8402277 2.5695082,31.6679344 C2.57180325,31.4638763 2.47860517,31.2704697 2.31757377,31.1451148 C2.44394182,31.0393006 2.51699858,30.8829836 2.51711475,30.7181639 C2.51711475,30.6323279 2.47698361,30.1741639 1.75462295,30.1741639 L0.87842623,30.1741639 L0.87842623,32.2476066 Z M1.31318033,31.3558033 L1.90622951,31.3558033 C1.97377608,31.3456232 2.04216152,31.3679545 2.09068261,31.4160365 C2.1392037,31.4641185 2.16215574,31.5322981 2.15259016,31.5999344 C2.15259016,31.883082 1.95527869,31.8897705 1.82485246,31.8897705 L1.31318033,31.8897705 L1.31318033,31.3558033 Z" id="Shape" fill-rule="nonzero"></path>
                    <polygon id="Shape" fill-rule="nonzero" points="3.94681967 32.2476066 3.44681967 32.2476066 3.44681967 30.1752787 3.94681967 30.1752787"></polygon>
                    <path d="M5.73540984,31.9377049 C5.5945286,31.9407836 5.4575063,31.891535 5.35081967,31.7994754 C5.07050041,31.4697572 5.07050041,30.9854559 5.35081967,30.6557377 C5.57735995,30.4688515 5.90460726,30.4688515 6.13114754,30.6557377 C6.41336707,30.986022 6.41336707,31.4725354 6.13114754,31.8028197 C6.02109973,31.8963155 5.87965072,31.9445277 5.73540984,31.9377049 Z M6.75429508,31.225377 C6.75832405,30.9202871 6.64636405,30.6250474 6.44104918,30.3993443 C6.2497559,30.2224535 5.99570579,30.1293419 5.73540984,30.1407213 C5.47541647,30.1291419 5.22163749,30.2223013 5.03088525,30.3993443 C4.61196518,30.8703625 4.61196518,31.5803916 5.03088525,32.0514098 C5.22163749,32.2284528 5.47541647,32.3216122 5.73540984,32.3100328 C5.99570579,32.3214122 6.2497559,32.2283006 6.44104918,32.0514098 C6.64636405,31.8257067 6.75832405,31.530467 6.75429508,31.225377 Z" id="Shape" fill-rule="nonzero"></path>
                    <polygon id="Shape" fill-rule="nonzero" points="8.05632787 30.1752787 8.05632787 31.8931148 9.06852459 31.8931148 9.06852459 32.2476066 7.61934426 32.2476066 7.61934426 30.1752787"></polygon>
                    <path d="M10.8242623,31.9377049 C10.6818564,31.9419005 10.5430476,31.8925816 10.4352131,31.7994754 C10.1529936,31.4691912 10.1529936,30.9826777 10.4352131,30.6523934 C10.6617534,30.4655072 10.9890007,30.4655072 11.215541,30.6523934 C11.4977605,30.9826777 11.4977605,31.4691912 11.215541,31.7994754 C11.1071342,31.89311 10.9674294,31.9424644 10.8242623,31.9377049 Z M11.8431475,31.225377 C11.8471765,30.9202871 11.7352165,30.6250474 11.5299016,30.3993443 C11.1225918,30.0547193 10.5259328,30.0547193 10.118623,30.3993443 C9.70120501,30.8709328 9.70120501,31.5798213 10.118623,32.0514098 C10.5259328,32.3960348 11.1225918,32.3960348 11.5299016,32.0514098 C11.7352165,31.8257067 11.8471765,31.530467 11.8431475,31.225377 Z" id="Shape" fill-rule="nonzero"></path>
                    <path d="M13.6925246,31.1361967 L14.538623,31.1361967 L14.538623,32.2509508 L14.2777705,32.2509508 L14.225377,31.9889836 C14.0688266,32.2137512 13.8020819,32.3351543 13.5297705,32.3055738 C13.2965731,32.3087144 13.0731171,32.2121944 12.915541,32.0402623 C12.4250492,31.5720656 12.4919344,30.5130492 13.2020328,30.2098361 C13.3302871,30.1586215 13.4674976,30.1336052 13.6055738,30.1362623 C13.8567259,30.1161584 14.1056209,30.1963178 14.2978361,30.3592131 C14.4368853,30.4763228 14.5235383,30.6440124 14.538623,30.8251803 L14.1417705,30.8251803 C14.0659672,30.5777049 13.8519344,30.4840656 13.6256393,30.4840656 C13.4925431,30.4822088 13.362385,30.5232496 13.2544262,30.6011148 C12.988,30.8240656 12.9735082,31.3468852 13.0894426,31.5832131 C13.1750143,31.7827962 13.3583141,31.9234387 13.5732459,31.9544262 C13.7547793,31.9714771 13.9335907,31.9011115 14.0548197,31.764918 C14.1300172,31.6893635 14.1724633,31.5872526 14.1729836,31.4806557 L13.6925246,31.4806557 L13.6925246,31.1361967 Z" id="Shape" fill-rule="nonzero"></path>
                    <polygon id="Shape" fill-rule="nonzero" points="15.9438033 32.2476066 15.4438033 32.2476066 15.4438033 30.1752787 15.9438033 30.1752787"></polygon>
                    <path d="M17.9854426,31.8819672 C17.9095403,31.9177651 17.826321,31.9353252 17.7424262,31.9332459 C17.6003322,31.9375981 17.4618168,31.888242 17.3544918,31.7950164 C17.0722723,31.4647321 17.0722723,30.9782187 17.3544918,30.6479344 C17.5805517,30.4597159 17.9087597,30.4597159 18.1348197,30.6479344 C18.2788218,30.8031549 18.3550434,31.0093545 18.346623,31.220918 C18.3477548,31.3765854 18.3094015,31.5299987 18.2351475,31.6668197 L17.9977049,31.4438689 L17.7747541,31.6768525 L17.9854426,31.8819672 Z M18.5305574,31.951082 C18.6810624,31.7375055 18.7609703,31.4821902 18.759082,31.220918 C18.7631109,30.9158281 18.6511509,30.6205884 18.4458361,30.3948852 C18.0403062,30.0500056 17.4445462,30.0500056 17.0390164,30.3948852 C16.6215985,30.8664738 16.6215985,31.5753622 17.0390164,32.0469508 C17.2293597,32.2239298 17.4827741,32.3171027 17.7424262,32.3055738 C17.9348453,32.3096571 18.1247723,32.2615011 18.292,32.1662295 L18.5361311,32.3891803 L18.759082,32.159541 L18.5305574,31.951082 Z" id="Shape" fill-rule="nonzero"></path>
                    <path d="M21.2806557,30.1752787 L21.2806557,31.6032787 C21.2936112,31.8737859 21.1345757,32.1230607 20.8838033,32.2253115 C20.7472166,32.2825819 20.6004996,32.3117737 20.4523934,32.3111475 C20.3130369,32.312118 20.1745828,32.2887279 20.0432787,32.2420328 C19.6932459,32.0525246 19.6051803,31.8083934 19.6051803,31.6032787 L19.6051803,30.1752787 L20.0410492,30.1752787 L20.0410492,31.6099672 C20.046623,31.7403934 20.0867541,31.9443934 20.4401311,31.9443934 C20.7935082,31.9443934 20.8459016,31.7437377 20.8459016,31.6099672 L20.8459016,30.1752787 L21.2806557,30.1752787 Z" id="Shape" fill-rule="nonzero"></path>
                    <polygon id="Shape" fill-rule="nonzero" points="23.7710164 30.1752787 23.7710164 30.5308852 22.6752131 30.5308852 22.6752131 31.0046557 23.6874098 31.0046557 23.6874098 31.3591475 22.6752131 31.3591475 22.6752131 31.8931148 23.8200656 31.8931148 23.8200656 32.2476066 22.240459 32.2476066 22.240459 30.1752787"></polygon>
                    <path d="M0.654360656,5.14236066 L23.6874098,5.14236066 L23.6874098,25.7374426 L0.654360656,25.7374426 L0.654360656,5.14236066 Z M11.147541,12.0895082 C10.8792744,11.826037 10.5131386,11.6866145 10.1375738,11.704918 C8.73186885,11.7283279 6.72085246,13.7114754 5.35193443,15.6645246 C4.22491803,17.2742295 2.33429508,20.5694426 2.33429508,24.5457705 L3.95068852,24.5457705 C3.95334506,23.5186172 4.08670032,22.4959771 4.34754098,21.5024918 L9.95586885,21.5024918 L9.95586885,24.5736393 L11.5722623,24.5736393 C11.5722623,24.5736393 11.5722623,13.5576393 11.5722623,13.523082 C11.5811803,13.178623 11.5934426,12.5398689 11.147541,12.0895082 Z M12.7316066,24.561377 L15.6422295,24.561377 C17.8394098,24.561377 19.9730492,23.5469508 19.9730492,20.9696393 C19.9730492,19.4658361 18.9463607,17.9809836 17.476,17.7078689 L17.476,17.6733115 C18.3109508,17.2641967 18.8047869,16.1728525 18.8047869,15.2342295 C18.8047869,12.3358689 16.596459,11.7138361 14.2543607,11.7138361 L12.7360656,11.7138361 L12.7316066,24.561377 Z M17.3689836,11.0081967 C17.8148852,8.75081967 16.4771803,6.66065574 14.9956721,6.07540984 C13.8619672,7.78432787 14.6523279,11.691541 18.1916721,11.691541 C20.2673443,11.691541 21.632918,9.85219672 21.6886557,9.21009836 C19.6029508,8.73186885 17.5506885,10.4976393 17.3689836,11.0081967 Z" id="Combined-Shape" fill-rule="nonzero"></path>
                    <path d="M14.2922623,13.1351475 L14.7203279,13.1351475 C16.1695082,13.1351475 17.3600656,13.4428197 17.3600656,15.2531803 C17.3600656,17.0958689 16.1561311,17.403541 14.6846557,17.403541 L14.288918,17.403541 L14.2922623,13.1351475 Z" id="Path"></path>
                    <path d="M14.2922623,18.6799344 L15.2487213,18.6799344 C16.6377049,18.6799344 18.4213115,19.0556066 18.4213115,20.867082 C18.4213115,22.6963934 16.918623,23.1400656 15.4805902,23.1400656 L14.2922623,23.1400656 L14.2922623,18.6799344 Z" id="Path"></path>
                    <path d="M4.8547541,19.9418361 C6.27718033,16.306623 8.97934426,13.7560656 9.95921311,13.3725902 C9.95921311,13.4160656 9.95921311,19.9418361 9.95921311,19.9418361 L4.8547541,19.9418361 Z" id="Path"></path>
                </g>
            </g>
        </g>
    </g>
</svg>