<?xml version="1.0" encoding="UTF-8"?>
<svg width="40px" height="40px" viewBox="0 0 40 40" version="1.1" xmlns="http://www.w3.org/2000/svg" xmlns:xlink="http://www.w3.org/1999/xlink">
    <!-- Generator: Sketch 50.2 (55047) - http://www.bohemiancoding.com/sketch -->
    <title>QF</title>
    <desc>Created with Sketch.</desc>
    <defs></defs>
    <g id="Symbols" stroke="none" stroke-width="1" fill="none" fill-rule="evenodd">
        <g id="virtues/0bis" transform="translate(-147.000000, -5.000000)">
            <g id="QF" transform="translate(147.000000, 5.000000)">
                <polygon id="Fill-1" fill="#FFFFFE" opacity="0.01" points="0 39.7435052 39.8815034 39.7435052 39.8815034 0 0 0"></polygon>
                <g id="qf" transform="translate(2.000000, 4.000000)" fill="#9B9B9B" fill-rule="nonzero">
                    <polygon id="Shape" points="11.7986755 16.8847682 17.1157616 16.8837086 13.4060927 13.9496689 12.2034437 13.9496689 15.1003974 16.1091391 11.581457 16.1091391"></polygon>
                    <polygon id="Shape" points="11.5952318 17.3096689 11.3769536 18.085298 14.8969536 18.085298 12 20.2447682 13.2015894 20.2447682 16.9123179 17.3096689"></polygon>
                    <polygon id="Shape" points="16.3825166 22.7539073 16.9568212 23.5337748 18.0439735 20.1218543 19.184106 23.695894 19.6153642 22.5737748 18.0439735 18.0821192"></polygon>
                    <polygon id="Shape" points="13.2471523 20.7533775 13.2704636 21.7218543 16.1186755 19.5507285 15.0007947 23.1321854 15.9989404 22.4603974 17.2884768 17.8797351"></polygon>
                    <polygon id="Shape" points="22.647947 20.6580132 18.7846358 17.8797351 20.1027815 22.6596026 21.0203974 22.9690066 19.9544371 19.5507285 22.9372185 21.8246358"></polygon>
                    <polygon id="Shape" points="24.0815894 16.8847682 24.2988079 16.1091391 20.7798675 16.1091391 23.6768212 13.9496689 22.4741722 13.9496689 18.7645033 16.8837086"></polygon>
                    <polygon id="Shape" points="24.2850331 17.3096689 18.967947 17.3096689 22.6776159 20.2447682 23.8802649 20.2447682 20.9833113 18.085298 24.5022517 18.085298"></polygon>
                    <path d="M17.2715232,9.18039735 L17.2715232,13.8193377 C17.2715232,15.0283444 16.5181457,14.493245 16.5181457,14.9488742 C16.5181457,15.0092715 16.5774834,15.0548344 16.706755,15.0548344 C17.2513907,15.0548344 17.6678146,15.0156291 17.9782781,15.0156291 C18.4148344,15.0156291 18.781457,15.0548344 19.1576159,15.0548344 C19.4055629,15.0548344 19.6143046,15.0950993 19.6143046,14.8969536 C19.6143046,14.6288742 18.4943046,14.8768212 18.4943046,13.7769536 L18.4943046,12.3125828 C18.4943046,11.7382781 18.4540397,11.618543 18.9107285,11.618543 L19.6439735,11.618543 C20.6749669,11.618543 20.397351,12.6696689 20.7141722,12.6696689 C20.9525828,12.6696689 20.8921854,12.3125828 20.882649,12.1843709 L20.8137748,10.4190728 C20.8031788,10.152053 20.6940397,10.1721854 20.6251656,10.1721854 C20.4270199,10.1721854 20.397351,11.0834437 19.5443709,11.0834437 L18.9202649,11.0834437 C18.4964238,11.0834437 18.4964238,11.0145695 18.4964238,10.5886093 L18.4964238,9.2005298 C18.4964238,8.51602649 18.5356291,8.50649007 19.7350993,8.50649007 C21.6423841,8.50649007 20.8752318,9.67205298 21.3403974,9.67205298 C21.5692715,9.67205298 21.5194702,9.34463576 21.5088742,9.21536424 L21.4696689,8.23417219 C21.4691354,8.18264484 21.447775,8.13352589 21.4104506,8.09799786 C21.3731262,8.06246982 21.3230142,8.0435562 21.2715232,8.04556291 C20.3994702,8.04556291 19.7149669,8.08582781 19.0113907,8.08582781 C17.4950993,8.08582781 16.7862252,8.04556291 16.3750993,8.04556291 C16.2362914,8.04556291 16.1568212,8.12503311 16.1568212,8.21403974 C16.149404,8.60609272 17.2715232,8.28821192 17.2715232,9.18039735 Z" id="Shape"></path>
                    <path d="M29.6974834,15.9788079 C29.6974834,10.8005298 24.4831788,6.58754967 18.074702,6.58754967 C11.6662252,6.58754967 6.45192053,10.8005298 6.45192053,15.9788079 C6.45192053,21.1570861 11.6651656,25.3690066 18.074702,25.3690066 C24.4842384,25.3690066 29.6974834,21.1560265 29.6974834,15.9788079 Z M6.66384106,15.9788079 C6.66384106,10.9170861 11.7827815,6.7994702 18.074702,6.7994702 C24.3666225,6.7994702 29.4855629,10.9139073 29.4855629,15.9788079 C29.4855629,21.0437086 24.3708609,25.1570861 18.074702,25.1570861 C11.778543,25.1570861 6.66384106,21.0394702 6.66384106,15.9788079 Z" id="Shape"></path>
                    <path d="M4.92397351,6.99337748 L6.28980132,8.66331126 C7.10357616,9.65509934 7.97880795,9.6805298 8.93880795,8.89642384 C10.3480795,7.74039735 9.93165563,6.6384106 9.0807947,5.6010596 L8.12927152,4.45033113 C7.65668874,3.87284768 8.16529801,3.76370861 8.05192053,3.62596026 C8.00529801,3.56980132 7.96609272,3.58463576 7.90569536,3.63443709 C7.65774834,3.85483444 7.50834437,3.99470199 7.33986755,4.13245033 C7.19682119,4.25006623 7.05059603,4.35284768 6.89377483,4.46410596 C6.82701987,4.5192053 6.7189404,4.56476821 6.78781457,4.64635762 C6.93827815,4.82966887 7.43629139,4.15682119 7.9184106,4.74384106 L8.74807947,5.75576159 C9.45695364,6.61933775 9.98569536,7.53483444 8.96847682,8.36874172 C8.05298013,9.11258278 7.31655629,8.63364238 6.67549669,7.85165563 L5.76635762,6.74331126 C5.0786755,5.90516556 5.73033113,5.82357616 5.58834437,5.65086093 C5.56291391,5.62013245 5.5194702,5.58728477 5.47284768,5.62437086 C5.37642384,5.70490066 5.02993377,6.02278146 4.76927152,6.23576159 C4.50860927,6.44874172 4.11443709,6.73907285 4.04768212,6.79417219 C4.00635762,6.82701987 3.95231788,6.90013245 4.00741722,6.96370861 C4.16635762,7.15761589 4.56370861,6.5589404 4.92397351,6.99337748 Z" id="Shape"></path>
                    <path d="M11.9735099,6.78145695 C12.1610596,6.74119205 12.3422517,6.67549669 12.5361589,6.63311258 C12.7300662,6.59072848 12.9419868,6.57271523 13.1486093,6.52715232 C13.2842384,6.49854305 13.4950993,6.50066225 13.4664901,6.36503311 C13.4283444,6.19019868 12.7533775,6.44450331 12.6527152,5.97933775 C12.6357044,5.79921684 12.6446253,5.61758698 12.6792053,5.44 C12.7353642,4.98119205 12.8656954,4.92609272 12.975894,4.90278146 L14.2474172,4.62834437 C14.415894,4.59231788 14.4593377,4.64953642 14.7835762,5.10728477 C14.8812823,5.22740203 14.9533991,5.36622694 14.9954967,5.51523179 C15.0802649,5.90940397 14.6066225,5.93907285 14.6468874,6.12450331 C14.6659603,6.21456954 14.7528477,6.18384106 14.864106,6.1584106 C15.0516556,6.1181457 15.287947,6.0407947 15.5687417,5.97933775 C15.9925828,5.88715232 16.1748344,5.87337748 16.407947,5.82569536 C16.5817219,5.78860927 16.6431788,5.78860927 16.6198675,5.6784106 C16.573245,5.46649007 16.2786755,5.79284768 15.9735099,5.37854305 L13.3700662,1.8013245 C13.2450331,1.62543046 13.2291391,1.61589404 13.1708609,1.62860927 C13.0871523,1.64662252 13.0807947,1.77589404 13.058543,1.88927152 L12.1504636,6.17430464 C12.066755,6.57059603 11.7266225,6.60344371 11.7615894,6.75178808 C11.7796026,6.83443709 11.8792053,6.7994702 11.9735099,6.78145695 Z M12.893245,4.2384106 L13.1390728,2.99231788 C13.1560265,2.91390728 13.1803974,2.90225166 13.1931126,2.89907285 C13.2249007,2.89271523 13.2058278,2.89907285 13.2556291,2.94039735 L14.0376159,4 C14.0932737,4.06545427 14.1350868,4.14151091 14.1605298,4.22357616 C14.1743046,4.28821192 14.0821192,4.30198675 13.9655629,4.32953642 L13.0871523,4.5192053 C12.9716556,4.54463576 12.882649,4.57006623 12.8678146,4.50543046 C12.8557445,4.41586427 12.8633379,4.32474359 12.8900662,4.2384106 L12.893245,4.2384106 Z" id="Shape"></path>
                    <path d="M17.9909934,5.72927152 C18.3512583,5.77059603 18.626755,5.77589404 18.8386755,5.7992053 C19.1671523,5.83629139 19.5581457,5.90516556 20.5562914,6.02066225 C21.0945695,6.08211921 21.5438411,5.58834437 21.6021192,5.07549669 C21.615894,4.95152318 21.5724503,4.92609272 21.5459603,4.92291391 C21.2969536,4.89536424 21.290596,5.76529801 19.6619868,5.57986755 C19.189404,5.52582781 19.2381457,5.29271523 19.2890066,4.88582781 L19.6397351,1.80662252 C19.6969536,1.30754967 20.1345695,1.60317881 20.1631788,1.35417219 C20.1727152,1.27576159 20.1398675,1.26516556 20.0021192,1.24821192 C19.8961589,1.23655629 19.8156291,1.25350993 19.2603974,1.18993377 C19.0113907,1.1613245 18.6331126,1.09245033 18.3703311,1.06172185 C18.2325828,1.04688742 18.1584106,1.09033113 18.1478146,1.14966887 C18.1213245,1.37960265 18.8842384,1.28635762 18.8206623,1.84476821 L18.4582781,4.95152318 C18.3671523,5.75258278 17.9083444,5.34145695 17.8744371,5.64344371 C17.8691391,5.68264901 17.9072848,5.7218543 17.9909934,5.72927152 Z" id="Shape"></path>
                    <path d="M22.8121854,6.65218543 C22.9700662,6.7210596 23.2413245,6.80900662 23.5019868,6.92238411 C23.9745695,7.12794702 24.1886093,7.24874172 24.413245,7.34622517 C24.552053,7.40662252 24.6177483,7.40662252 24.6463576,7.33986755 C24.7300662,7.14490066 23.9300662,7.12794702 24.2543046,6.38622517 L25.5078146,3.49668874 C25.7578808,2.9202649 26.1170861,3.33562914 26.2071523,3.13006623 C26.2389404,3.05695364 26.2135099,3.03152318 26.0312583,2.95311258 C25.6858278,2.80370861 25.4569536,2.73271523 25.2386755,2.63523179 C25.0203974,2.53774834 24.8010596,2.41589404 24.5647682,2.31735099 C24.5096689,2.29298013 24.3666225,2.21139073 24.3210596,2.31735099 C24.2299338,2.52927152 24.9886093,2.65748344 24.7449007,3.20847682 L23.4871523,6.10966887 C23.2370861,6.68503311 22.869404,6.33854305 22.7772185,6.55046358 C22.7668012,6.56830535 22.764673,6.58980006 22.7713892,6.60933826 C22.7781055,6.62887646 22.7929999,6.64451964 22.8121854,6.65218543 Z" id="Shape"></path>
                    <path d="M26.6256954,8.66331126 C26.8196026,8.84238411 26.9976159,8.97165563 27.3229139,9.27258278 C27.6482119,9.57350993 27.7891391,9.74092715 27.9830464,9.92 C28.1239735,10.0503311 28.2076821,10.1541722 28.3157616,10.0376159 C28.4407947,9.90198675 27.690596,9.46860927 28.242649,8.87205298 L30.2717881,6.67549669 C30.4837086,6.44344371 30.5578808,6.46357616 30.7570861,6.64794702 L31.1692715,7.02940397 C31.7446358,7.52635762 31.0908609,7.9205298 31.2847682,8.10066225 C31.4108609,8.21721854 31.5327152,7.97880795 31.5772185,7.91099338 L31.9364238,7.41721854 C31.9766887,7.36423841 32.0423841,7.29642384 31.9671523,7.22860927 C31.5157616,6.81112583 31.1724503,6.53033113 30.4646358,5.87443709 C29.7568212,5.21854305 29.4495364,4.89854305 28.9992053,4.4810596 C28.9260927,4.41430464 28.8635762,4.4810596 28.8137748,4.52662252 L28.144106,5.09456954 C28.0752318,5.14860927 27.9480795,5.22807947 28.0498013,5.32238411 C28.2680795,5.52476821 28.7099338,4.75443709 29.2577483,5.26198675 L29.6688742,5.64238411 C29.8680795,5.82569536 29.8935099,5.89562914 29.6784106,6.12768212 L27.592053,8.37827815 C27.0622517,8.95470199 26.725298,8.21509934 26.5504636,8.40370861 C26.4519205,8.51072848 26.5388079,8.58278146 26.6256954,8.66331126 Z" id="Shape"></path>
                    <path d="M34.8270199,13.1062252 C34.632053,12.5584106 34.4540397,12.1377483 34.2972185,11.695894 C33.9592053,10.7422517 33.8246358,10.2855629 33.7335099,10.0301987 C33.7027815,9.94331126 33.6349669,9.91152318 33.5788079,9.93165563 C33.3298013,10.0196026 33.7790728,10.6521854 33.218543,10.8513907 L30.3046358,11.8876821 C29.5449007,12.1568212 29.7133775,11.5698013 29.4272848,11.6662252 C29.3891391,11.68 29.3721854,11.7276821 29.4007947,11.8092715 C29.522649,12.1515232 29.6402649,12.4037086 29.7091391,12.5976159 C29.8150993,12.9080795 29.9274172,13.290596 30.2633113,14.2368212 C30.4455629,14.7475497 31.0866225,14.9340397 31.5719205,14.7613245 C31.690596,14.7189404 31.6937748,14.6691391 31.6842384,14.6437086 C31.6005298,14.4074172 30.8153642,14.7846358 30.2664901,13.2407947 C30.1075497,12.7915232 30.3406623,12.7374834 30.7263576,12.6050331 L31.5231788,12.3221192 C31.8845033,12.1939073 31.9470199,12.1419868 32.0529801,12.4280795 L32.2172185,12.887947 C32.4471523,13.5364238 31.7255629,13.5957616 31.7933775,13.7949669 C31.8463576,13.9443709 32.0572185,13.8278146 32.1356291,13.7949669 L33.2301987,13.3509934 C33.3965563,13.285298 33.3594702,13.2206623 33.3446358,13.1772185 C33.3001325,13.053245 32.7205298,13.2376159 32.5298013,12.7025166 L32.3909934,12.3104636 C32.2956291,12.0423841 32.3390728,12.0264901 32.6029139,11.9321854 L33.4749669,11.6217219 C33.904106,11.4691391 33.9189404,11.4913907 34.1870199,12.2447682 C34.6108609,13.4474172 33.7133775,13.2206623 33.8172185,13.5162914 C33.8680795,13.6593377 34.0619868,13.5554967 34.141457,13.5162914 L34.7486093,13.2715232 C34.781488,13.2607676 34.808504,13.2369764 34.8233301,13.2057213 C34.8381562,13.1744662 34.8394903,13.1384925 34.8270199,13.1062252 Z" id="Shape"></path>
                    <path d="M18.074702,0 C8.10807947,0 0,7.16821192 0,15.9788079 C0,24.789404 8.10807947,31.9565563 18.074702,31.9565563 C28.0413245,31.9565563 36.1483444,24.794702 36.1483444,15.9788079 C36.1483444,7.16291391 28.0402649,0 18.074702,0 Z M18.074702,31.7446358 C8.22463576,31.7446358 0.21192053,24.6717881 0.21192053,15.9788079 C0.21192053,7.28582781 8.22463576,0.21192053 18.074702,0.21192053 C27.9247682,0.21192053 35.9364238,7.28476821 35.9364238,15.9788079 C35.9364238,24.6728477 27.9237086,31.7446358 18.074702,31.7446358 Z" id="Shape"></path>
                    <circle id="Oval" cx="3.29642384" cy="17.842649" r="1"></circle>
                    <circle id="Oval" cx="32.4407947" cy="18.013245" r="1"></circle>
                    <path d="M7.21801325,23.2847682 C7.13430464,23.1788079 6.65006623,23.5517881 6.29086093,23.1109934 L6.02807947,22.7931126 C5.84900662,22.5727152 5.88397351,22.5430464 6.10437086,22.3692715 L6.82172185,21.7843709 C7.17456954,21.4961589 7.19682119,21.512053 7.70225166,22.1319205 C8.50860927,23.1194702 7.58357616,23.2095364 7.77960265,23.4500662 C7.87602649,23.5676821 8.02331126,23.4045033 8.08582781,23.344106 L8.57642384,22.9096689 C8.60266239,22.8874823 8.61889716,22.8556921 8.62148686,22.8214284 C8.62407655,22.7871648 8.61280441,22.7532955 8.59019868,22.7274172 C8.22251656,22.2770861 7.91417219,21.9411921 7.61748344,21.5766887 C6.98172185,20.7936424 6.69774834,20.4111258 6.52609272,20.1992053 C6.50835885,20.1693733 6.47920184,20.1480864 6.44538562,20.1402826 C6.41156939,20.1324789 6.37603285,20.1388366 6.34701987,20.1578808 C6.14251656,20.325298 6.77827815,20.7703311 6.31735099,21.1454305 L3.9205298,23.0919205 C3.29536424,23.6015894 3.25509934,22.9859603 3.01880795,23.1788079 C2.98807947,23.2031788 2.98807947,23.2550993 3.04211921,23.3218543 C3.27205298,23.6037086 3.46596026,23.8018543 3.59735099,23.9576159 C3.78172185,24.1822517 3.91523179,24.3888742 4.07417219,24.5827815 C4.18013245,24.7109934 4.24582781,24.8349669 4.34860927,24.7523179 C4.48635762,24.6389404 3.88662252,24.165298 4.45456954,23.7011921 L5.21218543,23.0834437 C5.50993377,22.8407947 5.55443709,22.7655629 5.74198675,23.0060927 L6.05139073,23.3843709 C6.48582781,23.9141722 5.82569536,24.2161589 5.9592053,24.3803974 C6.06516556,24.5033113 6.21880795,24.3221192 6.27708609,24.2627815 L7.1597351,23.4829139 C7.30278146,23.3684768 7.24662252,23.3207947 7.21801325,23.2847682 Z" id="Shape"></path>
                    <path d="M10.7655629,24.0678146 C10.3809272,23.8484768 9.97827815,23.6492715 9.59364238,23.432053 C9.23231788,23.2201325 9.1994702,23.1756291 8.93456954,23.0251656 C8.86569536,22.9859603 8.79258278,22.9817219 8.7597351,23.0389404 C8.64211921,23.2508609 9.38807947,23.3907285 9.02145695,24.0339073 L7.58039735,26.5589404 C7.16821192,27.2815894 6.81112583,26.8270199 6.70622517,27.0103311 C6.6405298,27.1258278 6.77086093,27.1766887 6.83443709,27.2127152 C7.1215894,27.3769536 7.42145695,27.5178808 7.73086093,27.6948344 C7.97245033,27.8325828 8.11443709,27.9438411 8.21192053,27.9989404 C8.34331126,28.0741722 8.40900662,28.066755 8.4386755,28.0148344 C8.55629139,27.8082119 7.85377483,27.7192053 8.20450331,27.1046358 L8.77139073,26.1117881 C8.88582781,25.9115232 8.87735099,25.8511258 9.17827815,26.0249007 C9.46543046,26.1891391 9.53960265,26.2993377 9.52688742,26.6278146 L9.49192053,27.8092715 C9.4802649,28.2437086 9.45695364,28.7099338 9.91576159,28.9684768 C10.1456954,29.0998675 10.5960265,29.1899338 10.6977483,29.0119205 C10.7109201,28.9897189 10.7140571,28.9629724 10.7063802,28.9383254 C10.6987033,28.9136784 10.6809328,28.8934441 10.6574834,28.882649 C10.6002649,28.8498013 10.5229139,28.8508609 10.4656954,28.8180132 C10.3788542,28.7814827 10.3193247,28.6999355 10.3109934,28.6060927 C10.3109934,27.6471523 10.2982781,26.5366887 10.317351,26.5027815 C10.3501987,26.4455629 10.5462252,26.4890066 10.7878146,26.4519205 C11.1049672,26.4026539 11.3800726,26.2061501 11.5295364,25.9221192 C11.6757616,25.6603974 12.0222517,24.7851656 10.7655629,24.0678146 Z M10.7274172,25.6815894 C10.5345695,26.0206623 10.3162914,26.317351 9.44423841,25.8246358 C9.27152318,25.7260927 9.05960265,25.605298 9.14119205,25.4611921 L9.80344371,24.3019868 C9.9994702,23.9576159 10.1774834,24.0593377 10.389404,24.1801325 C10.9690066,24.5117881 11.0484768,25.12 10.7274172,25.6815894 Z" id="Shape"></path>
                    <path d="M16.6484768,30.1986755 L15.5592053,25.914702 C15.5072848,25.7027815 15.4966887,25.6900662 15.4384106,25.6805298 C15.3536424,25.6656954 15.2996026,25.7864901 15.2370861,25.8807947 L12.8084768,29.5258278 C12.5838411,29.8638411 12.258543,29.7684768 12.2331126,29.9189404 C12.2182781,30.0037086 12.325298,30.007947 12.4164238,30.0249007 C12.6050331,30.0566887 12.7989404,30.0630464 12.9939073,30.095894 C13.1888742,30.1287417 13.3933775,30.1901987 13.6021192,30.2251656 C13.7388079,30.2474172 13.9337748,30.3311258 13.9560265,30.1901987 C13.9856954,30.0143046 13.2651656,30.0005298 13.3435762,29.5311258 C13.3925095,29.3554911 13.4663737,29.1877801 13.5629139,29.0331126 C13.7854305,28.6283444 13.9263576,28.6251656 14.0365563,28.6442384 L15.3207947,28.8561589 C15.4903311,28.8847682 15.5115232,28.9557616 15.6386755,29.5003974 C15.6836619,29.6478044 15.6984381,29.802774 15.6821192,29.9560265 C15.6153642,30.3544371 15.1650331,30.2039735 15.133245,30.3936424 C15.117351,30.4847682 15.2042384,30.4858278 15.3218543,30.5059603 C15.5104636,30.5377483 15.7562914,30.5515232 16.0434437,30.6002649 C16.4725828,30.6723179 16.6442384,30.7284768 16.8794702,30.7676821 C17.0553642,30.797351 17.1115232,30.8196026 17.130596,30.709404 C17.1740397,30.4974834 16.7788079,30.6924503 16.6484768,30.1986755 Z M15.4002649,28.4503311 C15.3896689,28.5160265 15.2943046,28.4937748 15.1819868,28.4736424 L14.2961589,28.325298 C14.178543,28.3051656 14.0842384,28.2966887 14.0969536,28.2309934 C14.1185551,28.1479008 14.1567625,28.0700442 14.2092715,28.0021192 L14.9054305,26.9329801 C14.9499338,26.8672848 14.9774834,26.8651656 14.9901987,26.8672848 C15.0230464,26.8725828 15.0029139,26.8672848 15.0336424,26.9276821 L15.3695364,28.1992053 C15.3970547,28.2798838 15.4075185,28.3653979 15.4002649,28.4503311 Z" id="Shape"></path>
                    <path d="M22.9308609,26.2188079 C22.8090066,25.5353642 23.3896689,25.5925828 23.354702,25.3976159 C23.354702,25.3774834 23.3388079,25.3128477 23.215894,25.3350993 C23.1576159,25.3456954 22.9340397,25.4124503 22.5239735,25.4855629 C22.0757616,25.5660927 21.8818543,25.5735099 21.7822517,25.5915232 C21.753599,25.5968145 21.7283897,25.613671 21.7125526,25.6381283 C21.6967155,25.6625856 21.6916484,25.6924851 21.698543,25.7207947 C21.7366887,25.9327152 22.5091391,25.6762914 22.6150993,26.2675497 L23.0029139,28.4333775 C23.0325828,28.5965563 23.0336424,28.6770861 22.9944371,28.6834437 C22.9552318,28.6898013 22.8630464,28.6272848 22.7623841,28.5509934 L19.6333775,26.1509934 C19.4945695,26.0450331 19.5645033,25.9888742 19.3568212,26.0259603 C19.0113907,26.0884768 18.8471523,26.1446358 18.6776159,26.1743046 C18.554702,26.1965563 18.4328477,26.1923179 18.3088742,26.2135099 C18.2788234,26.2171857 18.25178,26.2335401 18.2345684,26.2584464 C18.2173567,26.2833527 18.2116208,26.3144318 18.2188079,26.3438411 C18.2739073,26.6617219 18.9266225,26.1033113 19.1512583,27.3515232 L19.5941722,29.8235762 C19.7128477,30.4868874 19.0643709,30.4815894 19.1141722,30.7422517 C19.133245,30.8482119 19.2582781,30.797351 19.3260927,30.7835762 C19.5019868,30.7528477 19.6725828,30.6945695 19.8813245,30.6574834 C20.1091391,30.6172185 20.3348344,30.6034437 20.6537748,30.5515232 C20.7374834,30.5366887 20.9017219,30.5133775 20.8847682,30.4222517 C20.8307285,30.1170861 20.077351,30.7083444 19.8537748,29.4601325 L19.4574834,27.2476821 C19.4468874,27.189404 19.4511258,27.1417219 19.4903311,27.1343046 C19.5295364,27.1268874 19.5676821,27.1544371 19.6227815,27.1978808 L23.3578808,30.0196026 C23.4044761,30.0714349 23.4749825,30.0948027 23.5433113,30.0810596 C23.6206623,30.0662252 23.6111258,30.0143046 23.5856954,29.8691391 L22.9308609,26.2188079 Z" id="Shape"></path>
                    <path d="M29.0574834,25.7483444 C28.9133775,25.8415894 29.0045033,26.807947 28.144106,27.3674172 C27.0845033,28.0519205 25.9295364,27.2381457 25.4251656,26.4550993 C24.9451656,25.7133775 24.8953642,24.6442384 25.7101987,24.1176159 C26.3544371,23.7022517 27.1544371,23.8696689 27.7753642,24.2235762 C27.8611921,24.2712583 27.9756291,24.3623841 28.0646358,24.3051656 C28.1536424,24.247947 28.0540397,24.1313907 28.0127152,24.0794702 L27.2317881,23.0887417 C27.2137748,23.0601325 27.1713907,23.0802649 27.1438411,23.0982781 C27.0664901,23.1480795 27.1788079,23.3345695 27.0728477,23.4034437 C26.9064901,23.509404 26.2601325,23.447947 25.589404,23.8813245 C24.1907285,24.7830464 24.4100662,26.3798675 25.0119205,27.3123179 C25.2948344,27.7509934 26.461457,29.0076821 28.0847682,27.9618543 C29.2683444,27.1989404 29.3160265,25.981457 29.1729801,25.7589404 C29.1528477,25.7260927 29.0850331,25.7303311 29.0574834,25.7483444 Z" id="Shape"></path>
                    <path d="M32.9101987,21.7642384 C32.8095364,21.6890066 32.7660927,21.7144371 32.7501987,21.7356291 C32.5997351,21.9369536 33.3488742,22.3809272 32.3676821,23.6937748 C32.082649,24.0741722 31.9078146,23.9056954 31.5793377,23.6662252 L30.9022517,23.1597351 C30.5949669,22.9298013 30.5154967,22.9033113 30.6977483,22.6606623 L30.9901987,22.2686093 C31.4023841,21.7176159 31.8527152,22.2855629 31.9788079,22.1160265 C32.0741722,21.9888742 31.8590728,21.8786755 31.7870199,21.832053 L30.8164238,21.1655629 C30.6701987,21.0596026 30.637351,21.1295364 30.6098013,21.1655629 C30.5303311,21.2715232 31.0050331,21.6519205 30.6649007,22.1064901 L30.415894,22.4402649 C30.2463576,22.6680795 30.2092715,22.6405298 29.981457,22.4699338 L29.2397351,21.9168212 C28.8752318,21.6434437 28.8858278,21.6180132 29.3637086,20.9780132 C30.1276821,19.9565563 30.4381457,20.8317881 30.6246358,20.5827815 C30.714702,20.4609272 30.5186755,20.3570861 30.4476821,20.3115232 L29.9083444,19.9406623 C29.8804714,19.9205831 29.8457065,19.912529 29.8118434,19.9183056 C29.7779803,19.9240823 29.7478517,19.9432064 29.7282119,19.9713907 C29.3806623,20.4376159 29.1284768,20.8190728 28.8476821,21.1941722 C28.242649,22.0037086 27.9364238,22.3692715 27.7743046,22.5864901 C27.7490932,22.6103093 27.7348065,22.6434618 27.7348065,22.6781457 C27.7348065,22.7128296 27.7490932,22.745982 27.7743046,22.7698013 C27.9862252,22.9287417 28.2638411,22.2039735 28.7396026,22.5578808 L31.2169536,24.4090066 C31.8633113,24.8911258 31.2762914,25.0797351 31.52,25.2619868 C31.5517881,25.285298 31.6015894,25.2736424 31.6535099,25.2047682 C31.8707285,24.9133775 32.015894,24.6749669 32.1388079,24.5117881 C32.335894,24.2468874 32.5944371,23.9449007 33.1984106,23.1406623 C33.5237086,22.709404 33.3223841,22.0725828 32.9101987,21.7642384 Z" id="Shape"></path>
                    <path d="M4.42490066,14.9711258 C4.45553505,15.1451338 4.51842517,15.3118824 4.61033113,15.4627815 L4.87417219,15.1639735 C4.84309351,15.0268173 4.82500039,14.887039 4.82013245,14.7464901 C5.14017521,14.5015338 5.40485153,14.1917217 5.59682119,13.837351 C5.92953642,13.6529801 6.30781457,13.3849007 6.51761589,12.975894 C6.77298013,12.4778808 6.65324503,11.7340397 6.30569536,11.5475497 C6.34278146,12.1684768 6.25483444,12.562649 6.15417219,12.7650331 C6.08184058,12.8703625 5.98467248,12.9562489 5.87125828,13.0150993 C5.93695364,12.4227815 5.8797351,11.1290066 4.25112583,10.4201325 C2.96582781,9.86172185 1.79178808,10.4201325 1.28953642,11.6111258 C0.669668874,13.0638411 1.3181457,14.3046358 2.64900662,14.8831788 C3.46807947,15.2402649 4.08582781,15.1088742 4.42490066,14.9711258 Z M2.62357616,13.986755 C1.74516556,13.605298 1.0405298,12.9377483 1.46754967,11.9056954 C1.79602649,11.1194702 2.82066225,10.6860927 4.1589404,11.2699338 C4.7194702,11.5136424 5.81509934,12.1101987 5.51099338,13.2174834 C5.2005298,13.3849007 4.86251656,13.5639735 4.69721854,13.7610596 C4.5855734,13.9003321 4.50403222,14.0612496 4.45774834,14.2336424 C3.86437086,14.3660927 3.14913907,14.2156291 2.62463576,13.986755 L2.62357616,13.986755 Z" id="Shape"></path>
                </g>
            </g>
        </g>
    </g>
</svg>