<?xml version="1.0" encoding="UTF-8"?>
<svg width="40px" height="40px" viewBox="0 0 40 40" version="1.1" xmlns="http://www.w3.org/2000/svg" xmlns:xlink="http://www.w3.org/1999/xlink">
    <!-- Generator: Sketch 50.2 (55047) - http://www.bohemiancoding.com/sketch -->
    <title>vi</title>
    <desc>Created with Sketch.</desc>
    <defs></defs>
    <g id="Symbols" stroke="none" stroke-width="1" fill="none" fill-rule="evenodd">
        <g id="virtues/0bis" transform="translate(-92.000000, -5.000000)">
            <g id="vi" transform="translate(92.000000, 5.000000)">
                <polygon id="Fill-1" fill="#FFFFFE" opacity="0.01" points="0 39.7435052 39.8815034 39.7435052 39.8815034 0 0 0"></polygon>
                <path d="M25.797279,34.8392531 C25.8052321,35.0174423 25.9552347,35.1559692 26.1334927,35.1497455 C26.2696369,35.1602901 26.4036061,35.1109108 26.5003393,35.0145306 C26.5970725,34.9181505 26.6469413,34.7843627 26.6368946,34.6481808 L26.6368946,34.4809926 C26.5652425,34.4809926 26.4935904,34.4809926 26.4237755,34.4809926 C26.2437267,34.4736437 25.797279,34.5030394 25.797279,34.8392531 Z M17.6289397,33.7240525 C17.2614931,33.7240525 17.0961421,34.0914991 17.0961421,34.4387362 C17.0961421,34.7565776 17.2504697,35.1497455 17.6252653,35.1497455 C18.0000609,35.1497455 18.1323416,34.7271819 18.1249927,34.4277128 C18.1323416,34.0841502 17.9890375,33.7240525 17.6289397,33.7240525 Z M15.4242598,33.7240525 C15.0990695,33.7240525 14.9649514,34.0069864 14.9410674,34.2531757 L15.8743819,34.2531757 C15.8762192,33.9628928 15.7163799,33.7240525 15.426097,33.7240525 L15.4242598,33.7240525 Z M19.7288974,33.7240525 C19.4037071,33.7240525 19.2695891,34.0069864 19.2438678,34.2531757 L20.1771823,34.2531757 C20.1790195,33.9628928 20.017343,33.7240525 19.7307346,33.7240525 L19.7288974,33.7240525 Z M24.0427212,33.7240525 C23.6752745,33.7240525 23.5411565,34.082313 23.5466682,34.4277128 C23.5466682,34.7271819 23.6881351,35.1497455 24.0463956,35.1497455 C24.4046561,35.1497455 24.5755188,34.7565776 24.5755188,34.4387362 C24.5773561,34.0841502 24.4046561,33.7240525 24.0445584,33.7240525 L24.0427212,33.7240525 Z M26.5229861,29.0887129 C25.9718161,29.0887129 25.6576492,29.625185 25.6576492,30.1781922 C25.6576492,30.696292 25.9240481,31.2676716 26.5229861,31.2676716 C27.1219242,31.2676716 27.3809741,30.696292 27.3809741,30.1781922 C27.3828113,29.625185 27.06497,29.0887129 26.5248234,29.0887129 L26.5229861,29.0887129 Z M13.1883468,33.7240525 C12.8209002,33.7240525 12.6849449,34.082313 12.6922938,34.4277128 C12.6922938,34.7271819 12.8337608,35.1497455 13.1920213,35.1497455 C13.5502818,35.1497455 13.7229817,34.7565776 13.7229817,34.4387362 C13.7229817,34.0841502 13.5484446,33.7240525 13.1883468,33.7240525 Z M8,3 L8,36.8400002 L31.9997786,36.8400002 L31.9997786,3 L8,3 Z M25.5878344,10.3893523 C25.5878344,12.0463181 24.2445982,13.3895543 22.5876324,13.3895543 C22.4647508,13.3882168 22.3420553,13.3796281 22.2201857,13.363833 C22.2422325,13.4281362 22.4920963,13.9976785 22.5123058,14.0619817 C23.159012,16.1380553 23.5576916,18.9600457 23.5576916,22.0704817 C23.5576916,22.5371389 23.5485054,22.2633912 23.5319703,22.7153505 C23.5319703,22.7153505 22.4553516,23.845249 19.8225963,23.845249 C17.189841,23.845249 16.111385,22.7153505 16.111385,22.7153505 C16.0948499,22.2633912 16.0856638,22.5316272 16.0856638,22.0704817 C16.0838265,15.6971193 17.7998024,10.9644064 19.8170846,10.5271448 C20.1833271,10.4622665 20.5592236,10.4766759 20.9194246,10.5694012 C21.409487,11.461087 22.4181008,11.9356663 23.4175222,11.744822 C24.4169437,11.5539778 25.1797196,10.7411431 25.3067377,9.73162281 L25.5878344,10.3893523 Z M21.5128509,31.2676716 C21.8180966,31.2545131 22.1129602,31.1530341 22.3616527,30.9755515 L22.3616527,31.5120236 C22.088475,31.6367498 21.7910851,31.6994903 21.4908041,31.6957469 C20.513396,31.6957469 20.0651111,31.0674131 20.0651111,30.1230752 C20.0651111,29.2614128 20.5776992,28.6532886 21.3511744,28.6532886 C22.269791,28.6532886 22.5655856,29.3606234 22.5655856,30.2939379 L20.6070949,30.2939379 C20.5946327,30.5440803 20.6838287,30.7886361 20.8544086,30.9720183 C21.0249886,31.1554004 21.2624618,31.2620304 21.5128509,31.2676716 Z M22.9826376,11.2418286 C22.2506924,11.2418286 21.5908193,10.8009155 21.3107161,10.1246863 C21.0306128,9.44845722 21.1854409,8.67008383 21.7030042,8.15252046 C22.2205676,7.63495709 22.998941,7.480129 23.6751701,7.76023227 C24.3513993,8.04033555 24.7923124,8.70020865 24.7923124,9.43215378 C24.7937764,9.91259732 24.6043238,10.3739445 24.2656326,10.714703 C23.9269414,11.0554615 23.4667556,11.2477179 22.986312,11.2491775 L22.9826376,11.2418286 Z M24.5112157,7.65371195 C23.9479407,7.16868354 23.187893,6.97978361 22.4630885,7.14467664 C21.738284,7.30956967 21.1347593,7.80868231 20.8367491,8.4896531 C20.7828595,8.22846548 20.7545548,7.96264729 20.7522363,7.69596831 C20.7503991,6.14350618 21.5955264,4.87765243 22.6335632,4.87765243 C23.6716,4.87765243 24.5001923,6.11962214 24.5148901,7.66106088 L24.5112157,7.65371195 Z M19.8317825,4.23462078 C20.6695608,4.23462078 21.2593127,4.27871438 21.8876465,4.48264727 C21.6965853,4.56714367 21.5189364,4.67918013 21.3603606,4.8151865 C20.8567768,4.71917652 20.344205,4.67851578 19.8317825,4.6939291 C18.4373224,4.6939291 17.2596558,5.10914383 16.4475987,5.79626908 C17.8464789,5.48917802 19.2880198,5.42701584 20.7081427,5.61254575 C20.6263284,5.75561755 20.5545051,5.90417534 20.4931864,6.05715621 C19.6443847,5.95978285 17.6271025,5.82933928 15.8486607,6.44664967 C15.635059,6.76038134 15.4835139,7.1121157 15.402213,7.48284925 C17.3294707,7.80069061 19.5800815,7.58573432 20.206578,7.51408222 C20.206578,7.57654815 20.206578,7.63901408 20.206578,7.69780555 C20.206578,7.75659701 20.206578,7.88152888 20.2212759,7.96971608 C19.5194528,8.05055434 17.3092611,8.25448724 15.3489332,7.93297141 C15.3489332,7.99543734 15.3379098,8.05606604 15.3379098,8.11669474 C15.3354349,8.47280123 15.3976872,8.82639396 15.5216331,9.16024325 C17.6032185,9.89513657 20.0614366,9.34396658 20.4252088,9.24843045 L20.513396,9.70038985 C20.07246,9.81062384 17.8861524,10.3011651 15.8174277,9.73529728 C16.3370327,10.4774412 17.0959566,11.0184178 17.9669907,11.2675498 C17.875129,11.3900321 17.7851046,11.5204756 17.6969174,11.6588805 C15.9827787,11.0746404 14.8712525,9.76469301 14.8712525,8.12404367 C14.8712525,5.86975841 16.9565123,4.23462078 19.8317825,4.23462078 Z M9.51388024,35.3867486 L9.18134101,35.3867486 L9.18134101,33.4852121 L9.51388024,33.4852121 L9.51388024,35.3867486 Z M9.53592704,33.058974 L9.16848038,33.058974 L9.16848038,32.6639689 L9.53592704,32.6639689 L9.53592704,33.058974 Z M9.02701341,28.7249407 L9.5781834,28.7249407 L10.3222629,31.0949716 L10.3332863,31.0949716 L11.0939009,28.7249407 L11.6028145,28.7249407 L10.614383,31.6296065 L10.0209566,31.6296065 L9.02701341,28.7249407 Z M11.8049102,35.3867486 L11.4723709,35.3867486 L11.4723709,34.4038288 C11.4723709,33.9592183 11.3805093,33.7424248 11.0902264,33.7240525 C10.7135936,33.7240525 10.5390564,34.0455683 10.5390564,34.5067139 L10.5390564,35.3867486 L10.20468,35.3867486 L10.20468,33.4852121 L10.5261958,33.4852121 L10.5261958,33.7865184 C10.6408943,33.5646255 10.8737145,33.4292316 11.1232966,33.4392813 C11.5899539,33.4392813 11.7975612,33.7460993 11.7975612,34.2568501 L11.8049102,35.3867486 Z M12.1356122,27.8540921 L12.6500375,27.8540921 L12.6500375,28.4401695 L12.1356122,28.4401695 L12.1356122,27.8540921 Z M12.1356122,28.7249407 L12.6426885,28.7249407 L12.6426885,31.6296065 L12.1392866,31.6296065 L12.1356122,28.7249407 Z M14.0628699,35.3867486 L13.7358424,35.3867486 L13.7358424,35.1185126 C13.5978826,35.3213507 13.3655331,35.4392594 13.1203692,35.4308422 C12.5691992,35.4308422 12.346894,34.9200914 12.346894,34.4038288 C12.346894,33.8875662 12.6022694,33.4392813 13.1240437,33.4392813 C13.36598,33.418378 13.5985929,33.5375386 13.7229817,33.7460993 L13.7229817,32.5996657 L14.0628699,32.5996657 L14.0628699,35.3867486 Z M15.5197959,31.1813216 C15.3031345,31.4693411 14.9615346,31.6360419 14.6011792,31.6296065 C13.8130062,31.6296065 13.4253499,30.9516674 13.4253499,30.2020762 C13.4253499,29.4524851 13.8240296,28.656963 14.6562962,28.656963 C15.1413258,28.656963 15.4132364,28.8406864 15.5638895,29.1585277 L15.5638895,28.7249407 L16.0287095,28.7249407 L16.0287095,31.4973257 C16.0287095,32.3810349 15.5969597,32.8899486 14.6085282,32.8899486 C14.5267987,32.8899275 14.4451634,32.8844033 14.3641762,32.8734135 L14.3641762,32.428803 C14.4641397,32.4472693 14.5656738,32.4558843 14.6673196,32.4545243 C15.2037918,32.4545243 15.5216331,32.074217 15.5216331,31.4587438 L15.5216331,31.1739727 L15.5197959,31.1813216 Z M15.5455172,35.1497455 C15.7433026,35.1439962 15.9350092,35.080094 16.0966872,34.9660222 L16.0966872,35.318771 C15.9180872,35.4006432 15.7236058,35.4420489 15.5271448,35.4400284 C14.8877876,35.4400284 14.5938303,35.0321626 14.5938303,34.413015 C14.5938303,33.8489843 14.930044,33.4484675 15.4389576,33.4484675 C16.0397329,33.4484675 16.2344797,33.9114503 16.2344797,34.523249 L14.9484163,34.523249 C14.9380743,34.8570871 15.1989097,35.1367879 15.5326565,35.1497455 L15.5455172,35.1497455 Z M15.6961703,24.3321158 L16.2197818,24.1575787 C16.2197818,24.1722765 16.7709518,25.7816929 18.1599001,26.2501874 L17.9761768,26.7719617 C16.3410392,26.2134427 15.7163799,24.4092796 15.6961703,24.3321158 Z M17.7042663,35.4308422 C17.4617083,35.4522287 17.2280599,35.3339798 17.1016538,35.1258615 L17.1016538,36.16941 L16.7636028,36.16941 L16.7636028,33.4852121 L17.0814442,33.4852121 L17.0814442,33.7534482 C17.218034,33.5507691 17.4489369,33.4321973 17.6932429,33.4392813 C18.2168544,33.4392813 18.4703926,33.8912407 18.4703926,34.4038288 C18.4703926,34.9164169 18.2480873,35.4308422 17.7042663,35.4308422 Z M18.2885065,29.0887129 C17.709778,29.0887129 17.4507281,29.5810914 17.4507281,30.286589 L17.4507281,31.6296065 L16.9418145,31.6296065 L16.9418145,28.7249407 L17.4323558,28.7249407 L17.4323558,29.1860862 L17.4433792,29.1860862 C17.6181692,28.8517394 17.9683311,28.6463491 18.3454607,28.656963 C19.0601445,28.656963 19.3779858,29.1236203 19.3779858,29.9044444 L19.3779858,31.6296065 L18.8690722,31.6296065 L18.8690722,30.1267497 C18.8690722,29.4488106 18.7294425,29.1181086 18.2885065,29.0887129 Z M19.8409686,35.1515827 C20.038754,35.1458334 20.2304607,35.0819312 20.3921386,34.9678594 L20.3921386,35.3206082 C20.2135387,35.4024804 20.0190573,35.4438861 19.8225963,35.4418656 C19.1832391,35.4418656 18.8892818,35.0339998 18.8892818,34.4148522 C18.8892818,33.8508216 19.2254955,33.4503047 19.7344091,33.4503047 C20.3351844,33.4503047 20.5317683,33.9132875 20.5317683,34.5250862 L19.245705,34.5250862 C19.2412633,34.6866978 19.301358,34.8434261 19.41271,34.9606387 C19.5240619,35.0778512 19.6775045,35.145899 19.8391314,35.1497455 L19.8409686,35.1515827 Z M22.662959,35.3885858 L22.3304197,35.3885858 L22.3304197,34.405666 C22.3304197,33.9610556 22.2385581,33.744262 21.9482752,33.7258897 C21.5698052,33.7258897 21.3971052,34.0474055 21.3971052,34.5085511 L21.3971052,35.3885858 L21.0664032,35.3885858 L21.0664032,33.4852121 L21.3879191,33.4852121 L21.3879191,33.7865184 C21.5014684,33.5670843 21.7307025,33.4321147 21.9776709,33.4392813 C22.4443282,33.4392813 22.6537728,33.7460993 22.6537728,34.2568501 L22.662959,35.3885858 Z M24.9117325,35.3885858 L24.5920539,35.3885858 L24.5920539,35.1203498 C24.4540942,35.3231879 24.2217447,35.4410966 23.9765808,35.4326794 C23.4254108,35.4326794 23.2031056,34.9219286 23.2031056,34.405666 C23.2031056,33.8894035 23.4566438,33.4411185 23.9802552,33.4411185 C24.2221916,33.4202152 24.4548045,33.5393758 24.5791933,33.7479365 L24.5791933,32.5996657 L24.9025464,32.5996657 L24.9117325,35.3885858 Z M23.7156936,29.1769001 C23.8368217,28.8813955 24.1154209,28.6804621 24.4340519,28.6588003 C24.5467925,28.6577044 24.659196,28.6712916 24.7684283,28.6992194 L24.7684283,29.1769001 C24.6792343,29.1407066 24.5835628,29.1231981 24.4873316,29.1254575 C24.0353722,29.1254575 23.7377404,29.5829286 23.7377404,30.310473 L23.7377404,31.6314437 L23.2269896,31.6314437 L23.2269896,28.7249407 L23.702833,28.7249407 L23.702833,29.1750628 L23.7156936,29.1769001 Z M21.4926414,25.4932473 L21.6341083,24.9604496 C21.6984115,24.9769847 23.2122917,25.3499431 24.5148901,23.9389479 L24.9209187,24.3063946 C23.3831544,25.9746024 21.5679679,25.5116196 21.4908041,25.4914101 L21.4926414,25.4932473 Z M26.671802,35.3885858 L26.671802,35.1423966 C26.5482249,35.3252878 26.3413537,35.4342399 26.120632,35.4326794 C25.7311386,35.4326794 25.459228,35.2489561 25.459228,34.8410903 C25.459228,34.3615724 25.9534438,34.2145938 26.2970064,34.2145938 C26.42745,34.2145938 26.5193117,34.2145938 26.6515925,34.2145938 C26.6515925,33.8875662 26.537684,33.720378 26.2051448,33.720378 C26.014552,33.7188577 25.8293909,33.7838264 25.6815333,33.9041013 L25.6649982,33.6064695 C25.8411038,33.4896054 26.0470933,33.4258316 26.2584245,33.4227462 C26.7746871,33.4227462 26.9933179,33.6928195 26.9933179,34.2109193 L26.9933179,34.9972552 C26.9933179,35.2140487 26.9933179,35.3150965 27.0061785,35.3647018 L26.671802,35.3885858 Z M26.5266606,31.7012586 C25.6943939,31.7012586 25.1211771,31.0122961 25.1211771,30.1800294 C25.1211771,29.2963202 25.6833705,28.6588003 26.5266606,28.6588003 C27.3699507,28.6588003 27.9247951,29.2963202 27.9247951,30.1800294 C27.9229579,31.0104589 27.3515783,31.6994214 26.5248234,31.6994214 L26.5266606,31.7012586 Z M29.2163701,35.3885858 L28.8819937,35.3885858 L28.8819937,34.405666 C28.8819937,33.9610556 28.7919693,33.744262 28.5016864,33.7258897 C28.1232163,33.7258897 27.9505164,34.0474055 27.9505164,34.5085511 L27.9505164,35.3885858 L27.6179772,35.3885858 L27.6179772,33.4852121 L27.939493,33.4852121 L27.939493,33.7865184 C28.0520235,33.5661222 28.2819295,33.430757 28.5292449,33.4392813 C28.9959022,33.4392813 29.2053467,33.7460993 29.2053467,34.2568501 L29.2163701,35.3885858 Z M28.9187384,30.2884262 L28.9187384,31.6314437 L28.411662,31.6314437 L28.411662,28.7249407 L28.9040405,28.7249407 L28.9040405,29.1860862 C29.07879,28.8508138 29.4300619,28.6451913 29.8079593,28.656963 C30.5208058,28.656963 30.8386472,29.1236203 30.8386472,29.9044444 L30.8386472,31.6296065 L30.3315708,31.6296065 L30.3315708,30.1267497 C30.3315708,29.4488106 30.1901038,29.1181086 29.7473306,29.0887129 C29.1777882,29.0887129 28.9169011,29.5810914 28.9169011,30.286589 L28.9187384,30.2884262 Z M30.8570195,35.3830741 C30.7653212,35.4120664 30.6701775,35.4287474 30.5740856,35.4326794 C30.4229421,35.4513832 30.2716166,35.399358 30.1639268,35.2916682 C30.056237,35.1839784 30.0042118,35.0326529 30.0229156,34.8815095 L30.0229156,33.7791695 L29.6150498,33.7791695 L29.6150498,33.4962355 L30.0229156,33.4962355 L30.0229156,33.0552996 L30.3554548,32.9432283 L30.3554548,33.4943983 L30.8331355,33.4943983 L30.8331355,33.7773322 L30.3554548,33.7773322 L30.3554548,34.8043457 C30.3554548,35.0248137 30.4822239,35.1442338 30.6347143,35.1442338 C30.715142,35.1446701 30.7938547,35.1209923 30.860694,35.0762562 L30.8570195,35.3830741 Z M21.3456627,29.0887129 C20.8496097,29.0887129 20.6438396,29.5222999 20.6107694,29.8989327 L22.0346252,29.8989327 C22.0309507,29.4543223 21.7792497,29.0887129 21.3456627,29.0887129 Z M14.7169249,29.0887129 C14.2043369,29.0887129 13.9489614,29.6766275 13.9489614,30.1726805 C13.9489614,30.7238505 14.2410815,31.1978567 14.7169249,31.1978567 C15.1927684,31.1978567 15.5216331,30.7624324 15.5216331,30.2112624 C15.5216331,29.6086499 15.2570715,29.0887129 14.7169249,29.0887129 Z" id="Shape" fill="#9B9B9B" fill-rule="nonzero"></path>
            </g>
        </g>
    </g>
</svg>