<?xml version="1.0" encoding="UTF-8"?>
<svg width="40px" height="40px" viewBox="0 0 40 40" version="1.1" xmlns="http://www.w3.org/2000/svg" xmlns:xlink="http://www.w3.org/1999/xlink">
    <!-- Generator: Sketch 52.2 (67145) - http://www.bohemiancoding.com/sketch -->
    <title>Ecocert</title>
    <desc>Created with Sketch.</desc>
    <g id="Symbols" stroke="none" stroke-width="1" fill="none" fill-rule="evenodd">
        <g id="virtues/0bis" transform="translate(-91.000000, -6.000000)">
            <g id="Ecocert" transform="translate(91.000000, 6.000000)">
                <polygon id="Fill-1" fill="#FFFFFE" opacity="0.01" points="0.0537943872 39.8830928 39.9352978 39.8830928 39.9352978 0.139587629 0.0537943872 0.139587629"></polygon>
                <path d="M19.520121,33.4921649 C9.06973368,33.4921649 0.640153207,27.5653608 0.640153207,20.202268 C0.640153207,15.914433 3.26366409,12.0113402 8.0174327,9.42824742 C11.4265485,7.5756701 15.3688495,6.51010309 19.7332295,6.53072165 C28.2983305,6.57113402 35.4145003,9.84103093 38.2858792,15.6296907 C38.9593435,16.9874227 39.4294237,18.3542268 39.3373525,19.8626804 C39.0791395,24.1090722 36.4452835,28.2257732 31.7328952,30.822268 C28.2979167,32.7150515 23.9260882,33.4921649 19.520121,33.4921649 Z M19.6906078,32.2591753 C23.819327,32.2591753 27.7022473,31.4940206 30.7989419,30.0195876 C35.6406436,27.7142268 38.5807138,23.9391753 38.6113352,19.8940206 C38.6605777,13.3936082 30.8279081,7.95340206 20.2444831,7.95340206 C16.6063273,7.95340206 13.2135567,8.59835052 10.3034873,9.58865979 C4.72128508,11.4882474 1.37920533,16.137732 1.37920533,20.4035052 C1.37920533,26.9043299 9.10697595,32.2591753 19.6906078,32.2591753 Z" id="Combined-Shape" fill="#9B9B9B"></path>
                <polyline id="Fill-4" fill="#9B9B9B" points="6.88568156 19.6771134 7.14844645 18.822268 1.26789233 18.822268 1.02643829 19.6771134 6.88568156 19.6771134"></polyline>
                <polyline id="Fill-5" fill="#9B9B9B" points="10.9123983 10.1593814 16.3454245 10.1593814 16.0472795 10.9876289 11.6793822 10.9876289 10.656875 14.4272165 14.9180112 14.4272165 14.7475243 15.0853608 10.4224556 15.0853608 9.22925473 18.6948454 14.0657839 18.6948454 13.8739863 19.6503093 7.99343213 19.6503093 10.9123983 10.1593814"></polyline>
                <path d="M22.5456415,15.2340206 C22.5456415,15.2340206 22.9077191,12.9835052 23.8238789,11.9006186 C24.7400387,10.817732 25.3793643,10.5204124 25.3793643,10.5204124 C25.9119287,10.0534021 28.1704653,9.35257732 29.555257,10.2018557 C30.9400487,11.0513402 31.3474377,12.0789691 31.1318464,14.1086598 C30.9400487,15.9134021 29.7257438,17.5696907 29.7257438,17.5696907 C29.7257438,17.5484536 28.4686104,19.565567 25.9332395,19.5865979 C25.9332395,19.5865979 23.9943657,19.7564948 23.0995168,18.397732 C22.2046678,17.0387629 22.5456415,15.2340206 22.5456415,15.2340206 Z M27.78687,10.6478351 C26.2315915,10.6690722 25.5283333,11.2847423 24.7613495,12.3676289 C24.1338173,13.2538144 23.7599463,14.8307216 23.7599463,14.8307216 C23.3765578,16.4230928 23.6535989,17.442268 23.6535989,17.442268 C23.6535989,17.442268 23.8673282,18.8787629 25.8479961,18.822268 C28.0852219,18.7585567 29.0866251,16.7416495 29.0866251,16.7416495 C29.0866251,16.7416495 30.2156866,14.8517526 30.0878214,12.6649485 C29.9601632,10.4779381 27.78687,10.6478351 27.78687,10.6478351 Z" id="Combined-Shape" fill="#9B9B9B"></path>
                <polyline id="Fill-8" fill="#9B9B9B" points="17.5386254 20.0325773 22.9503408 20.0325773 22.6519888 20.871134 18.3589898 20.871134 17.2936541 24.1090722 21.5761011 24.1090722 21.3311297 24.9373196 17.016613 24.9373196 15.9570704 28.525567 20.8836018 28.525567 20.5641459 29.5235052 14.6196592 29.5235052 17.5386254 20.0325773"></polyline>
                <polyline id="Fill-9" fill="#9B9B9B" points="38.6742332 20.8125773 38.8730656 19.8414433 36.9981243 19.8414433 36.7353594 20.8125773 38.6742332 20.8125773"></polyline>
                <polyline id="Fill-10" fill="#9B9B9B" points="29.5393256 19.8414433 29.2149041 20.7868041 32.1462844 20.7868041 29.5126353 29.502268 30.5353494 29.4810309 33.1133419 20.791134 35.606298 20.791134 35.9114777 19.8414433 29.5393256 19.8414433"></polyline>
                <path d="M21.0967103,29.5235052 L23.9943657,20.0325773 L27.4032746,20.0325773 C27.4032746,20.0325773 29.1505577,20.0750515 29.2355942,21.9859794 C29.3096649,23.6404124 26.9772645,24.4913402 26.9772645,24.4913402 C26.9772645,24.4913402 27.9147351,24.5762887 27.7442483,26.6571134 C27.5737615,28.737732 27.6590049,29.4597938 27.6590049,29.4597938 L26.5510474,29.4597938 L26.7883634,26.1898969 C26.7883634,26.1898969 27.1156816,24.9903093 26.0077241,24.9478351 C24.8999735,24.9053608 23.3978687,24.9478351 23.3978687,24.9478351 L22.0453537,29.5235052 L21.0967103,29.5235052 Z M23.6540127,24.0985567 L26.0443456,24.0985567 C26.7641559,24.0985567 27.8727341,23.4068041 28.1646721,22.7101031 C28.8948275,20.9668041 27.2329947,20.871134 27.2329947,20.871134 L24.6442433,20.871134 L23.6540127,24.0985567 Z" id="Combined-Shape" fill="#9B9B9B"></path>
                <path d="M14.9819437,22.6865979 C14.9819437,22.6865979 15.4931973,20.6057732 13.1283133,20.6694845 C13.1283133,20.6694845 12.3613295,20.5845361 11.6696578,21.0321649 C11.051643,21.4321649 10.5290099,21.9435052 10.1027928,22.7078351 C10.1027928,22.7078351 9.54891753,23.2597938 9.1013896,24.9583505 C9.1013896,24.9583505 8.90959192,25.8927835 8.93090278,26.8270103 C8.94993771,27.6558763 9.0587679,28.8226804 11.0615743,28.8439175 C13.0643807,28.8651546 13.5332195,27.3152577 13.5332195,27.3152577 L14.7262135,27.3152577 C14.7262135,27.3152577 14.0870948,29.6931959 11.0615743,29.6931959 C11.0615743,29.6931959 8.47902993,29.7030928 8.07867554,27.8035052 C7.63135452,25.6804124 8.4622709,23.7694845 8.4622709,23.7694845 C8.4622709,23.7694845 9.46367411,21.3913402 10.9123983,20.6482474 C10.9123983,20.6482474 12.0416667,20.0113402 13.1922458,20.0113402 C14.342825,20.0113402 16.260388,20.3934021 16.0259686,22.6865979 L14.9819437,22.6865979" id="Fill-13" fill="#9B9B9B"></path>
                <path d="M22.1407353,12.6649485 C22.1407353,12.6649485 22.6519888,10.5841237 20.2871048,10.6478351 C20.2871048,10.6478351 19.520121,10.5628866 18.8286562,11.0105155 C18.2106415,11.4105155 17.6878014,11.9216495 17.2615843,12.6861856 C17.2615843,12.6861856 16.707709,13.2381443 16.260388,14.936701 C16.260388,14.936701 16.0685903,15.871134 16.0899012,16.8051546 C16.1087292,17.6342268 16.2177663,18.8010309 18.2205727,18.822268 C20.2231723,18.8435052 20.692011,17.2936082 20.692011,17.2936082 L21.885005,17.2936082 C21.885005,17.2936082 21.2458863,19.6715464 18.2205727,19.6715464 C18.2205727,19.6715464 15.6378214,19.6814433 15.237674,17.7818557 C14.790146,15.6587629 15.6210624,13.7478351 15.6210624,13.7478351 C15.6210624,13.7478351 16.6224656,11.3696907 18.0713968,10.6265979 C18.0713968,10.6265979 19.2006651,9.98969072 20.3510374,9.98969072 C21.5016166,9.98969072 23.4191796,10.3717526 23.1847602,12.6649485 L22.1407353,12.6649485" id="Fill-14" fill="#9B9B9B"></path>
                <path d="M36.4192139,31.0323711 L36.4192139,29.9635052 L36.5276303,29.9635052 C36.6811512,29.9635052 36.8595003,29.9564948 36.9993657,30.0224742 C37.1878529,30.1061856 37.2786827,30.3012371 37.2786827,30.4960825 C37.2786827,30.6529897 37.219302,30.8096907 37.0935059,30.9105155 C36.960882,31.0253608 36.7966022,31.0323711 36.6323225,31.0323711 L36.4192139,31.0323711 Z M36.6917032,31.1890722 C37.1284722,31.1960825 37.4464798,30.9593814 37.4464798,30.5030928 C37.4464798,30.2804124 37.3697194,30.0713402 37.1808183,29.9391753 C37.002883,29.8103093 36.7930849,29.8068041 36.5799764,29.8068041 L36.2514168,29.8068041 L36.2514168,32.4321649 L36.4192139,32.4321649 L36.4192139,31.1890722 L36.503009,31.1890722 L37.3626847,32.4321649 L37.5546893,32.4321649 L36.6917032,31.1890722 Z" id="Fill-15" fill="#9B9B9B"></path>
                <path d="M36.757291,32.9886598 L36.757291,32.9037113 C37.7585822,32.9037113 38.5703687,32.0947337 38.5703687,31.0969072 C38.5703687,30.0990807 37.7585822,29.2901031 36.757291,29.2901031 C35.7559997,29.2901031 34.9442132,30.0990807 34.9442132,31.0969072 C34.9442132,32.0947337 35.7559997,32.9037113 36.757291,32.9037113 L36.757291,32.9886598 Z M36.757291,32.9886598 L36.757291,33.0736082 C35.6618425,33.0736082 34.7737264,32.1885652 34.7737264,31.0969072 C34.7737264,30.0052492 35.6618425,29.1202062 36.757291,29.1202062 C37.8527394,29.1202062 38.7408555,30.0052492 38.7408555,31.0969072 C38.7408555,32.1885652 37.8527394,33.0736082 36.757291,33.0736082 L36.757291,32.9886598 Z" id="Stroke-16" fill="#9B9B9B" fill-rule="nonzero"></path>
            </g>
        </g>
    </g>
</svg>