<?xml version="1.0" encoding="UTF-8"?>
<svg width="132px" height="26px" viewBox="0 0 132 26" version="1.1" xmlns="http://www.w3.org/2000/svg" xmlns:xlink="http://www.w3.org/1999/xlink">
    <!-- Generator: Sketch 50.2 (55047) - http://www.bohemiancoding.com/sketch -->
    <title>armoniste</title>
    <desc>Created with Sketch.</desc>
    <defs>
        <polygon id="path-1" points="0 0.0636428571 13.7907 0.0636428571 13.7907 15.7142857 0 15.7142857"></polygon>
        <polygon id="path-3" points="0 25.8212429 131.233143 25.8212429 131.233143 -0.000471428571 0 -0.000471428571"></polygon>
    </defs>
    <g id="Symbols" stroke="none" stroke-width="1" fill="none" fill-rule="evenodd">
        <g id="armoniste">
            <g>
                <g id="Group-3" transform="translate(0.000000, 10.106957)">
                    <mask id="mask-2" fill="white">
                        <use xlink:href="#path-1"></use>
                    </mask>
                    <g id="Clip-2"></g>
                    <path d="M10.4199857,7.86107143 C9.49755714,8.23664286 8.11627143,8.55564286 6.27298571,8.81964286 C5.23112857,8.9705 4.49412857,9.13864286 4.06198571,9.32721429 C3.62827143,9.51578571 3.29512857,9.79078571 3.06098571,10.1522143 C2.82527143,10.5136429 2.70741429,10.9159286 2.70741429,11.3575 C2.70741429,12.0347857 2.96198571,12.5989286 3.47584286,13.0499286 C3.98812857,13.5009286 4.73927143,13.7256429 5.72612857,13.7256429 C6.70355714,13.7256429 7.57255714,13.5135 8.33312857,13.0845 C9.0937,12.6570714 9.6547,12.0725 10.0114143,11.3292143 C10.2832714,10.7556429 10.4199857,9.91021429 10.4199857,8.79135714 L10.4199857,7.86107143 Z M10.6321286,13.5292143 C9.69084286,14.3275 8.78727143,14.8916429 7.9167,15.2216429 C7.0477,15.5500714 6.11584286,15.7150714 5.11955714,15.7150714 C3.47427143,15.7150714 2.20927143,15.3127857 1.32612857,14.5082143 C0.441414286,13.7052143 -0.000157142857,12.6790714 -0.000157142857,11.4282143 C-0.000157142857,10.6959286 0.167985714,10.0233571 0.501128571,9.41835714 C0.834271429,8.81335714 1.27112857,8.32621429 1.8117,7.9585 C2.35227143,7.59235714 2.96198571,7.31578571 3.6377,7.12878571 C4.13584286,6.99678571 4.88698571,6.8695 5.89584286,6.74692857 C7.94184286,6.50178571 9.45198571,6.21107143 10.4199857,5.87321429 C10.4294143,5.52592857 10.4341286,5.30435714 10.4341286,5.21007143 C10.4341286,4.17607143 10.1921286,3.44692857 9.71441429,3.02421429 C9.06698571,2.45064286 8.10212857,2.16464286 6.82455714,2.16464286 C5.63184286,2.16464286 4.75027143,2.37364286 4.17984286,2.79164286 C3.61255714,3.20964286 3.19141429,3.95135714 2.91955714,5.01364286 L0.4367,4.67421429 C0.662985714,3.61192857 1.03384286,2.75392857 1.55084286,2.10021429 C2.06784286,1.4465 2.81584286,0.945214286 3.79327143,0.593214286 C4.7707,0.239642857 5.90212857,0.0636428571 7.1907,0.0636428571 C8.46984286,0.0636428571 9.51012857,0.2145 10.3084143,0.514642857 C11.1067,0.814785714 11.6944143,1.1935 12.0715571,1.64921429 C12.4439857,2.1065 12.7079857,2.68164286 12.8604143,3.37621429 C12.9437,3.80992857 12.9861286,4.58935714 12.9861286,5.71764286 L12.9861286,9.1025 C12.9861286,11.4612143 13.0411286,12.9540714 13.1479857,13.5795 C13.2579857,14.2049286 13.4701286,14.8020714 13.7907,15.3756429 L11.1397,15.3756429 C10.8757,14.8492143 10.7075571,14.2332143 10.6321286,13.5292143 Z" id="Fill-1" fill="#4A4A4A" mask="url(#mask-2)"></path>
                </g>
                <path d="M16.8928571,25.4829143 L16.8928571,10.5087714 L19.1745714,10.5087714 L19.1745714,12.7794857 C19.7575714,11.7172 20.2981429,11.0163429 20.79,10.6784857 C21.285,10.3406286 21.8287143,10.1709143 22.4211429,10.1709143 C23.2744286,10.1709143 24.1434286,10.4427714 25.0281429,10.9880571 L24.1528571,13.3420571 C23.5337143,12.9774857 22.913,12.7936286 22.2922857,12.7936286 C21.7391429,12.7936286 21.241,12.9602 20.7978571,13.2933429 C20.3547143,13.6280571 20.0404286,14.0900571 19.8534286,14.6824857 C19.5705714,15.5844857 19.4291429,16.5713429 19.4291429,17.6430571 L19.4291429,25.4829143 L16.8928571,25.4829143 Z" id="Fill-4" fill="#4A4A4A"></path>
                <path d="M26.5378143,25.4829143 L26.5378143,10.5087714 L28.8069571,10.5087714 L28.8069571,12.6097714 C29.2768143,11.8759143 29.9022429,11.2866286 30.6816714,10.8403429 C31.4626714,10.3940571 32.3505286,10.1709143 33.3468143,10.1709143 C34.4562429,10.1709143 35.3661,10.4003429 36.0748143,10.8607714 C36.7851,11.3212 37.2863857,11.9654857 37.5771,12.7936286 C38.7619571,11.0446286 40.3051,10.1709143 42.2018143,10.1709143 C43.6868143,10.1709143 44.8308143,10.5810571 45.6275286,11.4044857 C46.4258143,12.2263429 46.8265286,13.4929143 46.8265286,15.2026286 L46.8265286,25.4829143 L44.3028143,25.4829143 L44.3028143,16.0512 C44.3028143,15.0360571 44.2211,14.3037714 44.0561,13.8574857 C43.8911,13.4112 43.5941,13.0513429 43.1603857,12.7794857 C42.7282429,12.5060571 42.2191,12.3709143 41.6361,12.3709143 C40.5832429,12.3709143 39.7126714,12.7197714 39.0133857,13.4206286 C38.3188143,14.1214857 37.9715286,15.2419143 37.9715286,16.7834857 L37.9715286,25.4829143 L35.4336714,25.4829143 L35.4336714,15.7542 C35.4336714,14.6259143 35.2278143,13.7804857 34.8129571,13.2163429 C34.3996714,12.6522 33.7223857,12.3709143 32.7842429,12.3709143 C32.0692429,12.3709143 31.4108143,12.5579143 30.8011,12.9350571 C30.1945286,13.3090571 29.7576714,13.8606286 29.4842429,14.5834857 C29.2108143,15.3079143 29.0756714,16.3513429 29.0756714,17.7137714 L29.0756714,25.4829143 L26.5378143,25.4829143 Z" id="Fill-6" fill="#4A4A4A"></path>
                <path d="M73.3384143,25.4829143 L73.3384143,10.5087714 L75.6217,10.5087714 L75.6217,12.6380571 C76.7201286,10.9927714 78.3119857,10.1709143 80.3878429,10.1709143 C81.2914143,10.1709143 82.1195571,10.3327714 82.8754143,10.6564857 C83.6328429,10.9802 84.2001286,11.4060571 84.5757,11.9324857 C84.9512714,12.4589143 85.2152714,13.0843429 85.3661286,13.8072 C85.4604143,14.2786286 85.5059857,15.1004857 85.5059857,16.2759143 L85.5059857,25.4829143 L82.9681286,25.4829143 L82.9681286,16.3749143 C82.9681286,15.3393429 82.8675571,14.5677714 82.6711286,14.0554857 C82.4731286,13.5432 82.1227,13.1346286 81.6214143,12.8282 C81.1185571,12.5217714 80.5277,12.3709143 79.8519857,12.3709143 C78.7708429,12.3709143 77.8374143,12.7134857 77.0532714,13.4002 C76.2691286,14.0853429 75.8762714,15.3880571 75.8762714,17.3052 L75.8762714,25.4829143 L73.3384143,25.4829143 Z" id="Fill-8" fill="#4A4A4A"></path>
                <mask id="mask-4" fill="white">
                    <use xlink:href="#path-3"></use>
                </mask>
                <g id="Clip-11"></g>
                <polygon id="Fill-10" fill="#4A4A4A" mask="url(#mask-4)" points="89.4111429 25.4818143 91.949 25.4818143 91.949 10.5076714 89.4111429 10.5076714"></polygon>
                <path d="M94.7983143,21.0134571 L97.3094571,20.6190286 C97.4493143,21.6247429 97.8406,22.3947429 98.4864571,22.9306 C99.1276,23.4680286 100.0296,23.7351714 101.183029,23.7351714 C102.3506,23.7351714 103.214886,23.4978857 103.7806,23.0233143 C104.343171,22.5487429 104.626029,21.9908857 104.626029,21.3513143 C104.626029,20.7793143 104.376171,20.3267429 103.878029,19.9983143 C103.530743,19.7720286 102.666457,19.4860286 101.285171,19.1387429 C99.4214571,18.6673143 98.1313143,18.2618857 97.4131714,17.9193143 C96.6950286,17.5751714 96.1481714,17.1006 95.7773143,16.4940286 C95.4064571,15.8874571 95.2210286,15.2180286 95.2210286,14.4857429 C95.2210286,13.8178857 95.3734571,13.2003143 95.6798857,12.6314571 C95.9847429,12.0626 96.3996,11.5896 96.9260286,11.2140286 C97.3220286,10.9217429 97.8578857,10.6766 98.5414571,10.4738857 C99.2218857,10.2711714 99.9541714,10.1706 100.7336,10.1706 C101.909029,10.1706 102.939886,10.3403143 103.827743,10.6781714 C104.717171,11.0160286 105.372457,11.4748857 105.796743,12.0531714 C106.219457,12.6314571 106.510171,13.4046 106.672029,14.3710286 L104.189171,14.7104571 C104.076029,13.9404571 103.749171,13.3386 103.2086,12.9048857 C102.6696,12.4727429 101.904314,12.2574571 100.919029,12.2574571 C99.7514571,12.2574571 98.9186,12.4491714 98.4220286,12.8341714 C97.9223143,13.2207429 97.6756,13.6717429 97.6756,14.1887429 C97.6756,14.5187429 97.7777429,14.8141714 97.9851714,15.0766 C98.1910286,15.3500286 98.5147429,15.5763143 98.9578857,15.7538857 C99.2108857,15.8481714 99.9588857,16.0634571 101.200314,16.4013143 C102.994886,16.8821714 104.248886,17.2750286 104.9576,17.5798857 C105.666314,17.8863143 106.224171,18.3294571 106.626457,18.9124571 C107.031886,19.4954571 107.233029,20.2198857 107.233029,21.0841714 C107.233029,21.9296 106.987886,22.7263143 106.494457,23.4743143 C106.001029,24.2207429 105.2876,24.7990286 104.358886,25.2076 C103.425457,25.6161714 102.374171,25.8220286 101.200314,25.8220286 C99.2548857,25.8220286 97.7730286,25.4181714 96.7500286,24.6088857 C95.7317429,23.7996 95.0811714,22.6021714 94.7983143,21.0134571" id="Fill-12" fill="#4A4A4A" mask="url(#mask-4)"></path>
                <path d="M115.793071,23.2125143 L116.159214,25.4549429 C115.444214,25.6042286 114.806214,25.6796571 114.242071,25.6796571 C113.321214,25.6796571 112.606214,25.5350857 112.098643,25.2428 C111.591071,24.9520857 111.234357,24.5686571 111.026929,24.0940857 C110.8195,23.6195143 110.717357,22.6216571 110.717357,21.0973714 L110.717357,12.4828 L108.855214,12.4828 L108.855214,10.5090857 L110.717357,10.5090857 L110.717357,6.80051429 L113.241071,5.2778 L113.241071,10.5090857 L115.793071,10.5090857 L115.793071,12.4828 L113.241071,12.4828 L113.241071,21.2388 C113.241071,21.9632286 113.285071,22.4283714 113.374643,22.6342286 C113.464214,22.8416571 113.608786,23.0066571 113.813071,23.1292286 C114.014214,23.2502286 114.304929,23.3115143 114.677357,23.3115143 C114.960214,23.3115143 115.331071,23.2785143 115.793071,23.2125143" id="Fill-13" fill="#4A4A4A" mask="url(#mask-4)"></path>
                <path d="M120.192757,16.5576714 L128.552757,16.5576714 C128.439614,15.2973857 128.120614,14.3529571 127.595757,13.7228143 C126.7849,12.7453857 125.738329,12.2566714 124.451329,12.2566714 C123.2869,12.2566714 122.306329,12.6479571 121.509614,13.4273857 C120.716043,14.2068143 120.277614,15.2518143 120.192757,16.5576714 M128.526043,20.6606714 L131.148757,20.9843857 C130.735471,22.5165286 129.968614,23.7061 128.851329,24.5515286 C127.7309,25.3985286 126.302471,25.8212429 124.5629,25.8212429 C122.372329,25.8212429 120.637471,25.1471 119.352043,23.7972429 C118.068186,22.4489571 117.428614,20.5569571 117.428614,18.1228143 C117.428614,15.6038143 118.076043,13.6489571 119.374043,12.2566714 C120.672043,10.8659571 122.353471,10.1713857 124.421471,10.1713857 C126.425043,10.1713857 128.059329,10.8518143 129.329043,12.2142429 C130.597186,13.5782429 131.232043,15.4953857 131.232043,17.9672429 C131.232043,18.1181 131.227329,18.3443857 131.219471,18.6445286 L120.049757,18.6445286 C120.144043,20.2898143 120.610757,21.5485286 121.448329,22.4238143 C122.282757,23.2975286 123.326186,23.7343857 124.578614,23.7343857 C125.507329,23.7343857 126.302471,23.4908143 126.9609,23.0021 C127.619329,22.5133857 128.139471,21.7323857 128.526043,20.6606714" id="Fill-14" fill="#4A4A4A" mask="url(#mask-4)"></path>
                <path d="M92.2830857,6.12935714 C92.2830857,7.01407143 91.5665143,7.73221429 90.6802286,7.73221429 C89.7955143,7.73221429 89.0789429,7.01407143 89.0789429,6.12935714 C89.0789429,5.24464286 89.7955143,4.5265 90.6802286,4.5265 C91.5665143,4.5265 92.2830857,5.24464286 92.2830857,6.12935714" id="Fill-15" fill="#4A4A4A" mask="url(#mask-4)"></path>
                <path d="M63.7871143,12.1534286 C69.9534,16.6791429 64.0746857,26.4204286 60.2419714,25.0721429 C51.5488286,21.9968571 52.6975429,10.736 57.7685429,11.7228571 C62.8379714,12.7097143 62.8316857,18.4312857 62.8316857,18.4312857 C62.8316857,18.4312857 65.9698286,17.6455714 63.1019714,12.1644286 C63.0045429,11.7621429 63.7871143,12.1534286 63.7871143,12.1534286" id="Fill-16" fill="#4A4A4A" mask="url(#mask-4)"></path>
                <path d="M52.9574571,10.5122286 L49.3007429,10.5122286 L49.3007429,25.4832286 L52.9574571,25.4832286 C53.0753143,25.4832286 53.1711714,25.3873714 53.1711714,25.2695143 L53.1711714,24.8625143 C53.1711714,24.7525143 53.0863143,24.6598 52.9763143,24.6503714 C52.0256,24.5670857 51.6641714,24.3942286 51.5258857,24.2638 C51.4190286,24.1616571 51.2383143,23.8442286 51.2383143,22.8778 L51.2383143,13.1066571 C51.2383143,12.2125143 51.3970286,11.8636571 51.5306,11.7269429 C51.6657429,11.5902286 52.0256,11.4110857 52.9716,11.3450857 C53.0847429,11.3372286 53.1711714,11.2445143 53.1711714,11.1329429 L53.1711714,10.7243714 C53.1711714,10.6080857 53.0753143,10.5122286 52.9574571,10.5122286" id="Fill-17" fill="#4A4A4A" mask="url(#mask-4)"></path>
                <path d="M66.6813714,10.5122286 L70.3396571,10.5122286 L70.3396571,25.4832286 L66.6813714,25.4832286 C66.5650857,25.4832286 66.4692286,25.3873714 66.4692286,25.2695143 L66.4692286,24.8625143 C66.4692286,24.7525143 66.5525143,24.6598 66.6625143,24.6503714 C67.6132286,24.5670857 67.9746571,24.3942286 68.1129429,24.2638 C68.2198,24.1616571 68.4020857,23.8442286 68.4020857,22.8778 L68.4020857,13.1066571 C68.4020857,12.2125143 68.2418,11.8636571 68.1082286,11.7269429 C67.9730857,11.5902286 67.6132286,11.4110857 66.6672286,11.3450857 C66.5556571,11.3372286 66.4692286,11.2445143 66.4692286,11.1329429 L66.4692286,10.7243714 C66.4692286,10.6080857 66.5650857,10.5122286 66.6813714,10.5122286" id="Fill-18" fill="#4A4A4A" mask="url(#mask-4)"></path>
                <path d="M61.3732429,10.0877857 C61.3732429,8.30421429 59.6965286,7.15235714 59.6965286,7.15235714 C59.6965286,7.15235714 54.7638143,-0.319785714 45.2708143,6.56778571 C45.2708143,6.56778571 50.3308143,9.39007143 58.5242429,7.90035714 C60.9442429,6.9685 61.1736714,10.7116429 61.2836714,11.4392143 L61.3732429,10.0877857 Z" id="Fill-19" fill="#4A4A4A" mask="url(#mask-4)"></path>
                <path d="M62.5532286,8.26398571 C70.3710857,6.24627143 75.0319429,0.413128571 75.0319429,0.413128571 C66.4409429,-1.77115714 62.2986571,5.24841429 61.3730857,8.66312857 L62.5532286,8.26398571 Z" id="Fill-20" fill="#4A4A4A" mask="url(#mask-4)"></path>
            </g>
        </g>
    </g>
</svg>